<?xml version="1.0" standalone="no"?>
<!DOCTYPE svg PUBLIC "-//W3C//DTD SVG 20010904//EN"
 "http://www.w3.org/TR/2001/REC-SVG-20010904/DTD/svg10.dtd">
<svg version="1.0" xmlns="http://www.w3.org/2000/svg"
 width="536.000000pt" height="549.000000pt" viewBox="0 0 536.000000 549.000000"
 preserveAspectRatio="xMidYMid meet">

<g transform="translate(0.000000,549.000000) scale(0.100000,-0.100000)"
fill="#000" stroke="none">
<path d="M2650 5165 c-6 -8 -55 -40 -108 -71 -53 -31 -117 -69 -142 -84 -47
-29 -565 -326 -800 -460 -74 -42 -317 -181 -540 -309 -223 -127 -446 -253
-497 -279 -59 -29 -91 -52 -88 -60 2 -7 5 -554 6 -1217 2 -1097 3 -1204 18
-1210 33 -12 340 -181 466 -255 72 -43 227 -133 345 -200 118 -68 271 -155
340 -195 441 -255 583 -337 642 -373 38 -23 105 -60 150 -83 46 -23 118 -62
161 -86 71 -41 79 -44 95 -30 9 9 80 51 157 95 194 109 338 192 490 281 72 43
171 100 220 128 218 123 689 390 780 443 55 31 183 105 284 164 101 58 194
109 207 112 l24 6 0 1203 c0 662 3 1210 6 1218 4 10 -16 25 -66 51 -39 21
-151 84 -248 140 -97 57 -240 138 -317 181 -77 43 -198 113 -270 155 -199 118
-403 237 -770 450 -82 48 -178 103 -212 124 -34 20 -81 45 -105 55 -24 11 -79
42 -123 70 -43 28 -82 51 -86 51 -4 0 -12 -7 -19 -15z m-143 -1285 l-2 -375
-85 -7 c-47 -5 -169 -11 -271 -16 l-185 -7 -40 -31 c-21 -17 -99 -66 -171
-109 l-133 -78 0 -76 0 -76 1050 0 1050 0 0 101 0 102 -35 16 c-20 10 -64 37
-99 61 -133 91 -117 87 -437 98 l-286 11 -2 244 c-1 135 -4 249 -7 253 -2 4
-1 151 2 327 l7 319 61 -37 c34 -20 106 -62 161 -92 167 -91 454 -257 560
-323 55 -34 186 -111 290 -170 105 -60 253 -147 330 -193 77 -47 160 -94 184
-105 l44 -19 -7 -67 c-3 -36 -6 -487 -6 -1001 l-1 -935 -47 -22 c-26 -12 -81
-42 -122 -66 -41 -24 -187 -107 -325 -186 -340 -195 -810 -467 -865 -502 -25
-15 -93 -54 -152 -87 l-108 -60 0 574 0 574 203 0 c117 -1 224 4 255 10 40 9
93 39 217 121 l165 110 0 38 c0 21 3 51 6 67 l5 29 -1049 2 -1050 2 5 -67 c7
-106 4 -102 120 -179 188 -125 232 -135 550 -131 l211 3 7 -121 c9 -150 3
-1020 -7 -1030 -4 -4 -14 -1 -22 5 -8 7 -55 34 -103 60 -48 27 -137 76 -198
111 -240 138 -372 214 -420 243 -27 16 -113 66 -190 109 -77 44 -174 101 -215
128 -88 56 -247 145 -391 220 l-104 53 -3 1003 -3 1002 23 7 c13 4 66 32 118
62 539 311 875 503 1025 586 341 188 416 231 448 258 l32 27 7 -197 c4 -108 7
-365 5 -571z"/>
<path d="M3045 4068 l0 -223 40 -21 c131 -68 580 -312 690 -376 l130 -75 -3
-539 c-1 -296 -5 -594 -9 -662 l-5 -123 -37 -20 c-93 -51 -608 -348 -726 -417
-38 -23 -72 -43 -75 -44 -3 -2 -3 -96 0 -210 l5 -208 50 24 c28 13 95 51 150
86 55 34 195 116 310 182 116 66 267 154 337 194 152 88 324 179 356 187 l23
5 -2 871 -3 870 -86 47 c-47 26 -170 97 -275 159 -104 61 -282 165 -395 230
-113 65 -223 130 -245 145 -34 23 -225 140 -229 140 0 0 -1 -100 -1 -222z"/>
<path d="M2265 4258 c-48 -32 -254 -152 -485 -283 -118 -67 -291 -166 -385
-219 -93 -54 -207 -118 -252 -144 l-83 -47 0 -867 0 -868 88 -43 c88 -44 331
-180 627 -351 88 -51 230 -133 315 -181 85 -48 170 -99 188 -113 l32 -25 -2
226 -2 225 -40 20 c-62 32 -203 109 -276 151 -36 21 -105 60 -155 86 -49 27
-104 59 -121 72 -29 22 -208 114 -259 133 -21 8 -22 14 -28 221 -4 117 -7 414
-7 660 l0 448 57 26 c31 14 95 50 142 79 121 76 265 156 493 277 l197 104 1
218 c0 119 -3 217 -7 216 -5 0 -21 -10 -38 -21z"/>
<path d="M1615 2706 l0 -184 1047 2 1048 1 0 160 c0 88 3 170 6 183 l6 22
-1054 0 -1054 0 1 -184z"/>
</g>
</svg>
