<svg xmlns="http://www.w3.org/2000/svg" width="888" height="753"><path fill="#39658B" d="M690.563 340.938 694 341l4.6 9.198q2.675 5.339 5.326 10.689c3.714 7.49 7.54 14.91 11.449 22.3 4.24 8.024 8.21 16.144 12.066 24.359 2.388 5.064 4.875 10.04 7.559 14.954 3.691 6.761 6.993 13.685 10.28 20.65 2.606 5.518 5.244 11.015 7.97 16.475l.972 1.952c2.445 4.862 5.08 9.599 7.844 14.286C763 478 763 478 762 481c-4.421-.602-7.624-2.268-11.5-4.437-7.175-3.944-14.506-7.492-21.914-10.973a641 641 0 0 1-15.297-7.45c-3.008-1.499-6.05-2.92-9.101-4.327-7.161-3.319-14.286-6.711-21.408-10.112a1590 1590 0 0 0-15.842-7.451c-4.536-2.116-9.064-4.245-13.563-6.437l-2.79-1.356C648 427 648 427 645.497 424.997c-2.51-2.009-4.917-3.36-7.808-4.747l-2.676-1.297L633 418c3.842 5.9 7.932 11.073 13 16-2.54 3.35-5.036 6.015-8.375 8.563-4.29 3.349-8.446 6.816-12.562 10.375-4.09 3.535-8.21 7.004-12.438 10.375C596.45 476.483 596.45 476.483 584 493l-1.082 1.824c-2.667 4.9-4.443 10.184-6.354 15.41-2.181 5.905-4.623 11.679-7.126 17.454q-1.716 3.98-3.428 7.963a4780 4780 0 0 1-2.592 6.013c-2.918 7.105-4.468 13.958-5.645 21.512-.576 2.848-1.163 4.963-2.234 7.59-2.005 5.071-2.714 10.304-3.539 15.672-.979 6.342-2.13 12.264-4.286 18.312-1.319 4.156-1.896 8.454-2.589 12.75A196 196 0 0 1 538 646l-.89 2.988C533.35 660.246 521.73 667.047 512 673c-3.327 1.206-5.397.86-8.754-.152l-2.811-.842-2.998-.943c-1.021-.318-2.043-.635-3.096-.961-13.698-4.356-27.95-9.705-40.341-17.102l-1-2c3.347-3.488 6.77-6.425 10.688-9.25C479.612 629.995 495.409 615.093 507 599l1.595-2.03c2.028-4.286 1.69-8.066 1.514-12.74l-.073-2.89c-.08-3.051-.183-6.102-.286-9.153q-.082-3.014-.16-6.029c-.23-8.409-.53-16.8-1.11-25.193-.425-6.295-.617-12.571-.726-18.88l-.05-2.888q-.102-5.896-.18-11.794c-.143-10.316-.334-20.405-2.07-30.596-1.277-7.893-1.056-13.068 3.546-19.807 1.735-2.059 3.453-4.005 5.313-5.937q1.473-1.558 2.945-3.118l1.43-1.514c2.275-2.481 4.345-5.136 6.386-7.81 6.403-5.39 16.774-6.52 24.676-8.558 19.291-4.299 19.291-4.299 35.25-15.063q1.452-1.422 2.91-2.84c5.108-5 10.07-10.076 14.688-15.539C604 395 604 395 605.652 393.754c2.13-2.772 1.803-5.89 1.848-9.254.092-6.88.092-6.88 1.652-9.25 18.45-12.481 40.986-19.64 61.676-27.453l2.73-1.031q2.761-1.043 5.524-2.079l2.684-1.015 2.399-.903c4.283-1.794 4.283-1.794 6.398-1.832"/><path fill="#2C567B" d="M599 251c3.25 1.221 5.216 3.054 7.563 5.563 3.105 3.197 6.325 6.036 9.812 8.812 4.764 3.821 9.038 7.939 13.309 12.297 3.285 3.302 6.766 6.316 10.316 9.328q3.439 2.935 6.875 5.875l1.824 1.557a510 510 0 0 1 13.41 11.923c1.799 1.703 1.799 1.703 3.891 2.645v2l1.766.77c2.476 1.363 4.04 2.872 5.984 4.918 2.757 2.85 5.572 5.469 8.625 8 2.933 2.507 4.688 4.447 5.625 8.312l-1.766.48c-4.642 1.322-9.074 2.824-13.496 4.762-7.95 3.35-16.11 6.006-24.3 8.695l-4.87 1.609a4880 4880 0 0 1-11.6 3.81q-2.534.83-5.066 1.666c-9.206 3.036-18.467 5.691-27.84 8.166-10.375 2.74-20.668 5.71-30.937 8.824q-2.423.734-4.848 1.46-3.416 1.029-6.828 2.075l-2.058.615c-4.468 1.385-8.77 2.728-11.702 6.545l-.978 1.89-1.148 2.153-1.188 2.313q-1.303 2.444-2.617 4.882l-1.362 2.533c-2.251 4.067-4.694 8.011-7.146 11.96-3.964 6.42-7.74 12.88-11.25 19.562l-2.336 4.363c-4.646 8.708-9.098 17.457-13.191 26.438C500 461 500 461 498.389 463.746c-1.671 3.916-1.51 6.296-1.087 10.513q.186 2.14.359 4.283c.06.735.122 1.47.185 2.228.25 3.627.284 7.249.3 10.884l.01 2.237c.009 2.324.01 4.648.012 6.972l.01 4.955q.009 5.133.007 10.268c0 4.387.014 8.773.031 13.16q.015 5.09.013 10.179 0 2.429.013 4.857c.01 2.25.007 4.498 0 6.747l.005 3.87C498 558 498 558 496 561c-2.696.399-2.696.399-6.177.432l-3.953.06-4.323.02q-2.243.025-4.484.054c-3.967.048-7.934.077-11.901.104-3.914.029-7.827.076-11.74.121-6.899.077-13.797.13-20.696.168q-6.703.038-13.405.108-4.196.04-8.392.063c-1.927.014-3.854.038-5.78.062l-3.488.014-3.036.026c-2.695-.238-4.323-.852-6.625-2.232-.271-21.671.29-43.17 1.642-64.8.265-4.329.457-8.652.573-12.99l.088-2.955q.07-2.572.091-5.145c.18-6.043 2.094-9.526 6.254-13.805l1.727-1.43 2.094-1.766L407 455c2.297-1.952 4.586-3.914 6.875-5.875l1.838-1.57a443 443 0 0 0 10.6-9.368 148 148 0 0 1 19.812-15.125c4.49-2.949 7.876-5.905 11.246-10.062 4.143-5.086 8.855-9.472 14.067-13.437 5.1-3.966 9.541-8.466 14.062-13.063 16.794-17.005 16.794-17.005 24.5-17.5l3 2 .121-2.918c.766-5.3 3.883-9.134 6.942-13.394.59-.844 1.182-1.687 1.791-2.555 3.614-5.113 7.354-10.089 11.345-14.914 1.905-2.347 3.668-4.761 5.426-7.219 3.682-5.126 7.545-10.095 11.438-15.062 4.225-5.395 8.323-10.816 12.187-16.477 2.211-3.11 4.567-6.097 6.938-9.086 8.557-10.797 16.845-21.796 24.691-33.123 2.906-4.145 2.906-4.145 5.121-5.252"/><path fill="#2D577D" d="M197 341c4.967-.343 7.905.627 12.313 2.875 6.684 3.294 13.5 6.098 20.437 8.813 10.478 4.12 20.78 8.567 31.04 13.201 5.74 2.59 11.488 5.075 17.366 7.336C280 374 280 374 281 375a60 60 0 0 1-.219 4.008c-.942 9.14-.942 9.14 1.903 17.457 2.242 1.647 2.242 1.647 4.746 3.008 3.02 1.795 4.857 3.86 7.132 6.527 3.854 4.424 7.92 8.269 12.438 12l2.578 2.48c4.117 3.414 8.914 4.587 13.985 6.02l3.042.898a317 317 0 0 0 23.48 5.829c6.861 1.5 12.702 3.716 17.29 9.336l1.727 2.082L371 447l2.336 2.824A734 734 0 0 1 380 458l1.703 1.953c3.08 4.862 2.392 10.939 2.243 16.496l-.054 2.505q-.092 4.081-.197 8.163l-.131 5.701q-.14 5.97-.288 11.938-.189 7.63-.36 15.259-.135 5.886-.278 11.772-.068 2.813-.131 5.624-.092 3.94-.194 7.881l-.05 2.322c-.132 4.858-.616 9.57-1.263 14.386-.322 4.84-.48 9.676-.57 14.526q-.054 2.28-.164 4.557c-.39 8.307-.53 14.388 4.953 21.128A168 168 0 0 0 390 607c.93 1.059 1.853 2.126 2.758 3.207 6.833 7.521 14.104 14.48 21.62 21.316a432 432 0 0 1 3.935 3.637c4.669 4.27 9.777 7.607 15.148 10.945 2.504 1.87 3.476 3.008 4.539 5.895-12.625 7.946-25.685 12.861-40 17l-3.676 1.133-3.699 1.117-3.336 1.016c-8.178 1.826-8.178 1.826-12.228-.269-2.104-1.412-4.083-2.914-6.061-4.497l-2.136-1.67c-13.27-10.56-16.62-21.2-19.801-37.643q-.771-3.851-1.547-7.703l-.768-3.826a700 700 0 0 0-7.31-31.908c-5.847-23.086-5.847-23.086-5.97-32.293-.552-2.897-1.863-4.985-3.376-7.487-1.983-3.577-3.236-7.434-4.592-11.283q-.922-2.554-1.848-5.109l-.875-2.432A250 250 0 0 0 316 514l-.815-1.98c-8.912-21.537-22.799-36.309-40.394-51.474-2.474-2.135-4.881-4.34-7.291-6.546-3.184-2.904-6.378-5.792-9.625-8.625l-1.879-1.656a174 174 0 0 0-4.523-3.75l-2.536-2.094-2.347-1.883C245 434 245 434 245.062 431.496c.998-2.657 2.086-4.23 4-6.308l1.66-1.833L252 422l-1.441 1.066c-10.082 7.111-21.665 11.564-32.928 16.452-5.312 2.315-10.48 4.831-15.631 7.482-8.76 4.483-17.528 8.716-26.61 12.523-3.322 1.447-6.537 3.02-9.765 4.664-6.645 3.368-13.367 6.552-20.125 9.688l-3.15 1.481-3.006 1.386-2.682 1.246c-2.882 1.095-5.613 1.602-8.662 2.012.69-3.396 1.985-6.172 3.563-9.25l1.64-3.223L135 464q.932-1.872 1.86-3.746c3.036-6.133 6.11-12.236 9.35-18.264 6.482-12.063 12.293-24.436 18.124-36.824 4.408-9.363 8.827-18.682 13.768-27.777 2.398-4.417 4.67-8.885 6.898-13.389 3.839-7.755 7.888-15.388 12-23m164.313 156.563L359 500l-1.75 1.5c-1.48 1.51-1.48 1.51-1.625 4.063L355 508l-5 2-1 13c5.243-3.984 8.186-7.682 11.387-13.402 2.229-3.59 4.973-6.538 7.879-9.59 2.608-3.02 3.734-4.99 3.734-9.008-4.296 0-7.734 3.746-10.687 6.563"/><path fill="#254D71" d="M438 172c1.825 1.825 1.145 4.703 1.158 7.154l.015 1.974q.022 3.301.032 6.604l.03 4.723c.028 4.312.048 8.625.068 12.937.022 4.577.05 9.153.076 13.73q.067 11.639.124 23.277a28017 28017 0 0 0 .174 32.04q.153 26.72.255 53.44.054 14.587.152 29.175.064 9.735.1 19.468.02 5.587.067 11.175c.036 4.031.048 8.062.057 12.093l.043 3.565-.003 3.258.016 2.808c-.759 5.379-3.899 8.287-8.051 11.454-5.807 4.594-11.15 9.58-16.478 14.72-5.254 5.02-10.79 9.375-16.835 13.405-2.598-2.598-2.497-4.173-2.965-7.793l-.48-3.576-.493-3.818c-1.189-8.803-2.493-17.473-4.355-26.157-.873-4.512-1.473-9.04-2.082-13.594a402 402 0 0 0-4-23.75l-.56-2.966c-1.78-8.647-4.965-16.392-10.752-23.159-7.616-9.152-14.717-18.705-21.847-28.238a1291 1291 0 0 0-12.048-15.816 1257 1257 0 0 1-4.805-6.266 661 661 0 0 0-14.238-17.992c-4.398-5.372-8.641-10.805-12.652-16.477-2.115-2.944-4.38-5.755-6.692-8.546-1.373-2.466-1.271-4.054-1.031-6.852 1.063-1.934 1.063-1.934 2.57-3.793l1.698-2.134 1.857-2.26 3.848-4.813 2.012-2.492c3.238-4.03 6.407-8.113 9.577-12.196l1.73-2.21c2.59-3.318 5.102-6.65 7.485-10.122L333 201h2l.707-1.61c2.704-5 6.53-9.36 10.056-13.804a132 132 0 0 0 3.1-4.18c3.866-5.093 3.866-5.093 7.243-5.925l2.36-.153 2.686-.188L364 175l2.835-.147c3.069-.14 6.137-.25 9.208-.353l3.414-.123q5.366-.192 10.73-.377 7.053-.245 14.106-.5l3.401-.123c7.14-.268 14.258-.641 21.381-1.193 2.99-.188 5.93-.285 8.925-.184"/><path fill="#163956" d="M201 46c3.465.283 4.826.835 7.395 3.258l2.417 2.867c2.807 3.305 5.57 6.274 8.864 9.094 5.179 4.44 9.913 9.3 14.699 14.156q2.664 2.703 5.336 5.398l2.353 2.389c1.808 1.896 1.808 1.896 3.936 2.838v2l1.665.675c3.04 1.725 5.28 4.042 7.694 6.524l1.54 1.556q2.432 2.46 4.851 4.933a2720 2720 0 0 0 6.36 6.449l1.56 1.577c3.359 3.372 6.827 6.544 10.448 9.629 4.4 3.874 8.421 8.16 12.527 12.34 4.044 4.089 8.164 7.997 12.544 11.724 1.917 1.686 3.71 3.458 5.498 5.28 2.623 2.67 5.373 4.992 8.313 7.313 4.69 4.364 4.69 4.364 6.063 7.188 1.226 2.371 2.546 2.725 4.937 3.812 1.75 1.5 1.75 1.5 3 3v2l3 1c.908 3.451 1.38 5.27-.3 8.5l-2.012 2.5-2.258 2.902L329 190a748 748 0 0 0-4.687 6.563C304.41 224.509 304.41 224.509 295 237c-3.332-1.362-4.594-2.47-6.043-5.754l-1.05-2.312-1.094-2.496q-1.191-2.615-2.391-5.223l-1.22-2.66c-1.764-3.75-3.68-7.406-5.64-11.055l-1.12-2.093q-1.137-2.122-2.278-4.241a1239 1239 0 0 1-18.117-35.09c-5.098-10.232-10.397-20.353-15.985-30.326-3.933-7.149-7.317-14.579-10.792-21.957A411 411 0 0 0 224 103l-1 1c.346 2.757.764 5.455 1.25 8.188l.371 2.29c.817 4.666 2.114 8.316 4.379 12.522a88 88 0 0 1 1.438 4.813c.947 3.316 2.031 6.38 3.5 9.5 1.672 3.598 2.876 7.194 4 11 1.562 5.235 3.43 10.192 5.582 15.21 4.807 11.29 9.338 22.694 13.316 34.301 1.22 3.552 2.497 7.06 3.902 10.543l.861 2.165a210 210 0 0 0 1.661 4.03c1.803 4.538 2.012 7.727.74 12.438-1.715 2.598-1.715 2.598-3.937 5.063a148 148 0 0 0-9.813 12.625c-3.686 5.268-7.597 10.29-11.687 15.25-5.765 6.99-11.161 14.19-16.457 21.54a254 254 0 0 1-4.106 5.46 264 264 0 0 0-5.734 7.992l-1.5 2.176c-2.943 4.284-5.883 8.57-8.766 12.894l-3-1-.41-3.145c-1.54-11.21-3.63-22.275-5.903-33.355-3.299-16.107-6.059-32.273-8.698-48.5a884 884 0 0 0-3.114-17.812l-.469-2.586a661 661 0 0 0-2.539-13.2c-4.75-24.03-2.876-44.568 3.27-68.062 1.133-4.385 2.145-8.79 3.113-13.215l.472-2.122c1.174-5.346 2.163-10.718 3.134-16.104.999-5.406 2.285-10.714 3.666-16.034 1.119-4.33 2.055-8.665 2.916-13.052C195.87 58.89 198.266 52.505 201 46"/><path fill="#1F4668" d="M686 46h2l.805 2.23 1.07 2.958 1.055 2.917a95 95 0 0 0 2.078 5.196c1.404 3.82 2.16 7.72 2.992 11.699q.645 2.97 1.297 5.941l.707 3.231c2.457 11.169 5.061 22.282 7.877 33.366 2.054 8.113 3.917 16.257 5.68 24.438.486 2.24.985 4.478 1.486 6.715l.504 2.293a213 213 0 0 0 1.058 4.496c1.725 11.125.676 22.743-1.687 33.657-1.644 8.046-2.423 16.272-3.388 24.423a225 225 0 0 1-3.82 22.122c-1.087 5.053-1.83 10.145-2.589 15.256-1.732 11.227-4.008 22.27-6.514 33.347-.98 4.358-1.927 8.722-2.861 13.09l-.494 2.25c-1.091 5.11-1.743 10.175-2.256 15.375-4 0-4 0-5.663-1.624l-1.626-2.263-1.833-2.497L680 302q-1.82-2.42-3.648-4.832-1.865-2.49-3.727-4.98l-1.984-2.65q-4.187-5.59-8.368-11.186c-5.262-7.036-10.58-14.015-16.093-20.856-5.32-6.603-10.55-13.214-15.461-20.129-1.694-2.458-1.694-2.458-4-4.672-2.359-3.698-1.589-6.598-.719-10.695.818-2.707 1.84-5.303 2.914-7.918l.88-2.217q.928-2.33 1.866-4.657c1.624-4.03 3.218-8.074 4.809-12.118l.944-2.399a334 334 0 0 0 7.457-21.172c1.78-5.624 3.892-11.063 6.13-16.519l1.16-2.918.903-2.27.91-2.292c.799-1.96 1.64-3.904 2.496-5.84 1.554-3.736 2.831-7.49 3.968-11.368l.64-2.167c2.545-8.924 4.235-18.027 5.923-27.145-2.878 2.693-3.885 4.94-5.187 8.688-2.755 7.45-6.24 14.414-9.873 21.47-1.284 2.515-2.514 5.055-3.753 7.592-2.201 4.422-4.559 8.737-6.968 13.046-5.654 10.118-10.788 20.408-15.711 30.9-4.205 8.94-8.743 17.65-13.508 26.304l-3.105 5.71-3.082 5.665c-.52.958-1.04 1.916-1.577 2.902l-1.529 2.809-1.36 2.501A237 237 0 0 1 597 236c-2.803-.345-3.813-.784-5.691-2.956l-1.649-2.52-1.835-2.752L586 225a762 762 0 0 0-3.254-4.648l-1.63-2.329-3.473-4.958q-4.793-6.84-9.557-13.702l-1.916-2.754a2220 2220 0 0 1-3.639-5.25l-1.668-2.394-1.46-2.106c-1.35-1.79-2.803-3.293-4.403-4.859-1.573-2.36-2.043-3.51-1.795-6.358.98-3.254 2.349-4.67 4.768-7.04l2.478-2.454 2.611-2.523 2.53-2.5c4.41-4.332 8.92-8.494 13.601-12.53 2.73-2.41 5.267-4.99 7.807-7.595 3.891-3.945 7.852-7.7 12.074-11.293 2.237-1.983 4.327-4.079 6.426-6.207 2.627-2.663 5.267-5.213 8.125-7.625 4.85-4.15 9.279-8.727 13.745-13.282 3.084-3.126 6.205-6.136 9.536-9C641.507 89.627 645.743 85.33 650 81c5.484-5.578 11.062-10.908 17-16 6.29-5.551 12.419-11.087 17.695-17.637z"/><path fill="#356186" d="M455.974 171.94q2.614.12 5.23.267l2.841.135c3.069.147 6.137.309 9.205.47q4.732.235 9.466.462 3.157.152 6.316.308c6.125.298 12.248.546 18.378.711l2.096.058q4.683.127 9.368.219c16.072.421 16.072.421 20.798 5.043A148 148 0 0 1 542 183a544 544 0 0 0 3.016 3.918q1.619 2.134 3.234 4.27c3.774 4.967 7.579 9.886 11.563 14.687 3.588 4.327 6.885 8.806 10.156 13.375 2.09 2.83 4.284 5.542 6.531 8.25 3.089 3.756 6.16 7.52 9.125 11.375l2.04 2.617C589 244 589 244 588.93 246.535c-1.083 2.871-2.44 4.693-4.43 7.027a263 263 0 0 0-8.875 11.25 782 782 0 0 1-9.562 12.563c-3.493 4.505-6.844 9.09-10.125 13.75-3.794 5.387-7.83 10.497-12.051 15.559-2.163 2.655-4.002 5.458-5.887 8.316a445 445 0 0 1-3.75 4.687A236 236 0 0 0 526 330.5c-9.053 12.503-19.087 23.688-30.887 33.668a187 187 0 0 0-5.195 4.695l-1.646 1.535a615 615 0 0 0-3.237 3.048C481.22 377 481.22 377 479 377v2c-1.398 1.41-1.398 1.41-3.375 3.062-4.248 3.597-8.343 7.336-12.426 11.118C461 395 461 395 458 396v2h-2v2l-5 1c-1.318-3.954-1.141-7.73-1.134-11.851l-.007-2.776q-.007-4.622-.004-9.244l-.01-6.613q-.014-8.992-.012-17.986-.002-7.497-.008-14.994-.012-16.668-.01-33.335v-4.044q-.002-16.245-.023-32.49-.023-16.669-.02-33.337.001-9.363-.014-18.726-.014-8.8-.003-17.599.003-3.237-.007-6.475c-.008-2.935-.003-5.87.005-8.806l-.016-2.617c.048-8.074.048-8.074 6.237-8.166"/><path fill="#285174" d="M240 444c3.058 1.931 5.463 4.438 8 7q1.588 1.57 3.177 3.138c3.694 3.66 7.354 7.353 11.01 11.05q3.737 3.775 7.481 7.542l1.702 1.727c2.431 2.447 4.802 4.678 7.526 6.81L281 483v2l3 1c1.191 1.123 2.371 2.26 3.484 3.46 1.513 1.603 1.513 1.603 3.407 3.017 7.698 6.434 9.462 15.242 12.109 24.523q.666 2.23 1.34 4.457A934 934 0 0 1 308 534c.36 1.262.722 2.524 1.094 3.824q.96 3.366 1.914 6.735a657 657 0 0 0 7.152 23.11c3.392 10.357 6.633 20.726 9.402 31.269l.761 2.865c1.075 4.202 1.8 7.836 1.677 12.197-3.722-.652-6.323-2.308-9.473-4.352l-3.228-2.082-3.361-2.191-6.536-4.227-3.25-2.109c-8.488-5.491-17.044-10.875-25.595-16.267a3111 3111 0 0 1-12.409-7.862c-8.276-5.267-16.603-10.4-25.084-15.332-5.617-3.28-11.088-6.752-16.54-10.297-9.43-6.127-19.016-12.003-28.68-17.752-5.065-3.029-10.052-6.174-15.031-9.341-9.05-5.753-18.223-11.288-27.437-16.772a3663 3663 0 0 1-7.677-4.588l-2.392-1.432c-3.46-2.093-6.885-4.241-10.307-6.396.293-1.879.293-1.879 1-4 5.15-3.013 10.665-5.114 16.176-7.379 5.088-2.13 10.11-4.41 15.137-6.683l2.857-1.284c3.967-1.802 7.866-3.608 11.623-5.818 3.035-1.738 5.921-2.972 9.207-4.149 8.46-3.169 16.556-7.084 24.7-10.978 2.927-1.395 5.863-2.772 8.8-4.147l2.824-1.362c9.355-4.35 9.355-4.35 14.676-3.2"/><path fill="#305A7F" d="M657 444c3.88 1.399 7.546 3.194 11.25 5q3.215 1.522 6.434 3.04l3.222 1.523c5.135 2.385 10.354 4.556 15.59 6.71 9.77 4.037 19.3 8.564 28.817 13.164 7.505 3.613 15.029 7.07 22.714 10.282 4.42 1.905 8.705 4.058 12.973 6.281-.312 1.87-.312 1.87-1 4a76 76 0 0 1-7.125 4.375q-2.319 1.31-4.633 2.629l-2.54 1.438c-5.938 3.424-11.753 7.058-17.593 10.647-4.904 3.001-9.836 5.902-14.876 8.667-4.09 2.28-8.096 4.703-12.108 7.119l-2.662 1.6c-5.325 3.21-10.619 6.46-15.843 9.834a992 992 0 0 1-24.495 15.316c-15.142 9.192-30.207 18.501-45.164 27.992-6.105 3.865-12.27 7.623-18.451 11.364a333 333 0 0 0-16.39 10.672C564.374 613 564.374 613 560 613c.63-5.727 2.085-10.908 3.875-16.375l.777-2.422a831 831 0 0 1 3.864-11.683c1.597-4.78 2.99-9.608 4.359-14.457l.785-2.763a2723 2723 0 0 0 4.903-17.55 1409 1409 0 0 1 5.062-17.875l.588-2.044c1.191-4.061 2.575-8.005 4.09-11.956 1.297-3.49 2.295-7.08 3.342-10.652 3.211-7.636 8.094-13.353 14.23-18.786 10.09-9.195 19.657-18.905 29.266-28.597q2.127-2.145 4.255-4.286 1.97-1.982 3.933-3.97l1.776-1.787 1.554-1.57c3.07-2.81 6.4-2.847 10.341-2.227"/><path fill="#426E95" d="M599 251c3.25 1.221 5.216 3.054 7.563 5.563 3.105 3.197 6.325 6.036 9.812 8.812 4.764 3.821 9.038 7.939 13.309 12.297 3.285 3.302 6.766 6.316 10.316 9.328q3.439 2.935 6.875 5.875l1.824 1.557a510 510 0 0 1 13.41 11.923c1.799 1.703 1.799 1.703 3.891 2.645v2l1.766.77c2.476 1.363 4.04 2.872 5.984 4.918 2.757 2.85 5.572 5.469 8.625 8 2.933 2.507 4.688 4.447 5.625 8.312l-1.766.48c-4.642 1.322-9.074 2.824-13.496 4.762-7.95 3.35-16.11 6.006-24.3 8.695l-4.87 1.609a4880 4880 0 0 1-11.6 3.81q-2.534.83-5.066 1.666c-9.206 3.036-18.467 5.691-27.84 8.166-10.375 2.74-20.668 5.71-30.937 8.824q-2.423.734-4.848 1.46-3.416 1.029-6.828 2.075l-2.058.615c-4.468 1.385-8.77 2.728-11.702 6.545l-.978 1.89-1.148 2.153-1.188 2.313q-1.303 2.444-2.617 4.882l-1.362 2.533c-2.251 4.067-4.694 8.011-7.146 11.96-4.923 7.973-9.483 16.041-13.691 24.417l-1.338 2.626a418 418 0 0 0-2.62 5.236l-1.234 2.416-1.09 2.184c-1.59 2.097-2.72 2.326-5.277 2.683 2.148-21.42 4.36-42.803 7.587-64.092.359-2.526.638-5.04.874-7.58 1.824-15.13 12.297-26.694 21.738-38.11 1.905-2.346 3.668-4.76 5.426-7.218 3.682-5.126 7.545-10.095 11.438-15.062 4.225-5.395 8.323-10.816 12.187-16.477 2.211-3.11 4.567-6.097 6.938-9.086 8.557-10.797 16.845-21.796 24.691-33.123 2.906-4.145 2.906-4.145 5.121-5.252"/><path fill="#366287" d="M290.79 253.063c3.39 1.437 5.32 4.143 7.585 6.937l1.488 1.8a122 122 0 0 1 8.496 11.708c6.286 9.548 13.42 18.575 20.414 27.61 2.78 3.599 5.51 7.234 8.227 10.882l1.66 2.09C340 316 340 316 340 318h2c1.453 1.738 1.453 1.738 3.25 4.313l2.137 3.015 1.228 1.736c2.768 3.868 5.617 7.677 8.447 11.498 4.253 5.756 8.473 11.52 12.508 17.43 1.427 2.112 1.427 2.112 3.477 4.11 2.835 4.207 3.304 8.444 4.078 13.398l.473 2.781c.488 2.904.947 5.81 1.402 8.719l.511 3.156c1.216 7.637 2.129 15.278 2.926 22.969.96 9.009 2.07 17.953 3.649 26.875.763 4.427 1.037 8.53.914 13-3.417-1.035-4.115-2.196-5.965-5.344a274 274 0 0 1-1.973-4.156c-.35-.728-.702-1.455-1.064-2.205A798 798 0 0 1 375 433c-3.19-6.693-6.772-13.007-10.63-19.33-2.878-4.753-5.398-9.612-7.835-14.608-1.8-3.592-3.7-7.117-5.66-10.625l-.985-1.806c-3.618-6.391-7.651-8.12-14.53-10.049l-2.274-.66q-2.411-.701-4.825-1.391c-4.241-1.213-8.474-2.454-12.706-3.695l-2.537-.743c-6.437-1.896-12.8-3.963-19.143-6.156-11.493-3.953-23.162-7.248-34.862-10.525-7.062-1.98-14.087-3.99-21.013-6.412l-3.187-1.062q-2.947-.983-5.891-1.97-2.697-.894-5.406-1.75c-4.46-1.414-8.508-3.132-12.653-5.3-2.537-1.25-5.158-2.106-7.863-2.918.3-4.258 1.804-6.185 4.948-8.995l1.614-1.38 1.654-1.462A578 578 0 0 1 216 318l4.125-3.625 1.902-1.652c6.302-5.503 12.46-11.163 18.598-16.848 4.087-3.785 8.205-7.522 12.418-11.168 3.215-2.804 6.369-5.676 9.535-8.535 2.04-1.83 4.098-3.632 6.172-5.422 4.615-4.007 9.056-8.203 13.503-12.396l1.77-1.659 1.592-1.5c1.751-1.511 2.83-2.214 5.174-2.132"/><path fill="#22486B" d="M690.563 340.938 694 341l4.6 9.198q2.675 5.339 5.326 10.689c3.714 7.49 7.54 14.91 11.449 22.3 4.24 8.024 8.21 16.144 12.066 24.359 2.388 5.064 4.875 10.04 7.559 14.954 3.691 6.761 6.993 13.685 10.28 20.65 2.606 5.518 5.244 11.015 7.97 16.475l.972 1.952c2.445 4.862 5.08 9.599 7.844 14.286C763 478 763 478 762 481c-4.421-.602-7.624-2.268-11.5-4.437-7.175-3.944-14.506-7.492-21.914-10.973a641 641 0 0 1-15.297-7.45c-3.008-1.499-6.05-2.92-9.101-4.327-7.161-3.319-14.286-6.711-21.408-10.112a1590 1590 0 0 0-15.842-7.451c-4.536-2.116-9.064-4.245-13.563-6.437l-2.79-1.356C648 427 648 427 645.497 424.997c-2.51-2.009-4.917-3.36-7.808-4.747l-2.676-1.297L633 418l1 4-2-1v-3h-3l-3-5c-1.467-1.244-2.937-2.485-4.453-3.668-1.63-1.403-2.858-2.883-4.172-4.582-2.005-2.871-2.005-2.871-4.352-3.2-2.663-.724-3.283-1.836-4.773-4.113l-1.297-1.94L606 394l1-2c.198-3.168.346-6.329.43-9.502.234-4.99.234-4.99 1.73-7.252 18.437-12.487 40.985-19.638 61.668-27.45l2.73-1.03q2.761-1.043 5.524-2.079l2.684-1.015 2.399-.903c4.283-1.794 4.283-1.794 6.398-1.832"/><path fill="#1A3D5D" d="M197 341c4.967-.343 7.905.627 12.313 2.875 6.684 3.294 13.5 6.098 20.437 8.813 10.478 4.12 20.78 8.567 31.04 13.201 5.74 2.59 11.488 5.075 17.366 7.336C280 374 280 374 281 375c.938 7.171 2.07 16.52-1.715 22.883C274.522 402 274.522 402 271 402l-.75 1.75c-1.433 2.58-3.034 4.311-5.25 6.25h-2l-.875 1.813C261 414 261 414 259 417h-2l-1 3c-2.398 1.5-2.398 1.5-5.375 3-3.859 1.886-3.859 1.886-7.16 4.55-1.968 1.948-3.95 2.634-6.528 3.637C225.072 435.96 213.373 441.144 202 447c-8.76 4.484-17.528 8.716-26.61 12.523-3.322 1.447-6.537 3.02-9.765 4.664-6.645 3.368-13.367 6.552-20.125 9.688l-3.15 1.481-3.006 1.386-2.682 1.246c-2.882 1.095-5.613 1.602-8.662 2.012.69-3.396 1.985-6.172 3.563-9.25l1.64-3.223L135 464q.932-1.872 1.86-3.746c3.036-6.133 6.11-12.236 9.35-18.264 6.482-12.063 12.293-24.436 18.124-36.824 4.408-9.363 8.827-18.682 13.768-27.777 2.398-4.417 4.67-8.885 6.898-13.389 3.839-7.755 7.888-15.388 12-23"/><path fill="#638EAF" d="M379 482h2l-.025 1.75q-.3 21.135-.441 42.271a2442 2442 0 0 1-.213 20.443c-.1 6.581-.152 13.162-.175 19.744a586 586 0 0 1-.098 7.517c-.856 15.567-.856 15.567 5.335 29.2A88 88 0 0 0 390 607a95 95 0 0 1 2.758 3.207c6.833 7.521 14.104 14.48 21.62 21.316a432 432 0 0 1 3.935 3.637c4.669 4.27 9.777 7.607 15.148 10.945 2.504 1.87 3.476 3.008 4.539 5.895-12.625 7.946-25.685 12.861-40 17l-3.676 1.133-3.699 1.117-3.336 1.016c-8.178 1.826-8.178 1.826-12.228-.269-2.104-1.412-4.083-2.914-6.061-4.497l-2.136-1.67c-13.27-10.56-16.62-21.2-19.801-37.643q-.771-3.851-1.547-7.703l-.768-3.826a700 700 0 0 0-7.31-31.908 757 757 0 0 1-3.625-15l-.544-2.259c-1.371-6.023-2.482-11.685.051-17.546l1.805-2.82 1.945-3.105L339 541q1.506-2.59 3-5.187c2.505-4.18 5.37-7.931 8.41-11.731 1.776-2.325 3.178-4.71 4.574-7.273 3.024-5.384 6.472-10.319 10.641-14.871 3.355-3.698 5.344-7.389 7.375-11.938h2l2-6h2z"/><path fill="#7090A7" d="M508 485c2.609 2.58 5.023 5.144 7.25 8.063l1.578 2.035C518 497 518 497 518 500l3 1c1.246 1.89 1.246 1.89 2.438 4.25 1.898 3.599 3.942 6.622 6.562 9.75 4 5.556 4 5.556 4 9h2c1.191 1.512 1.191 1.512 2.563 3.688a375 375 0 0 0 8.125 12.062C554 550.207 554 550.207 554 554l3 1c-.44 5.008-1.153 9.672-2.473 14.535-.705 3.296-1.034 6.62-1.402 9.965-.697 6.11-1.86 11.916-3.455 17.867-1.661 6.304-2.88 12.67-4.107 19.07-1.96 10.073-4.348 19.821-7.563 29.563l-.887 2.977C533.353 660.242 521.738 667.042 512 673c-3.327 1.206-5.397.86-8.754-.152l-2.811-.842-2.998-.943c-1.021-.318-2.043-.635-3.096-.961-13.698-4.356-27.95-9.705-40.341-17.102l-1-2c3.347-3.488 6.77-6.425 10.688-9.25C479.612 629.995 495.409 615.093 507 599l1.595-2.03c2.028-4.286 1.69-8.066 1.514-12.74l-.073-2.89c-.08-3.051-.183-6.102-.286-9.153q-.082-3.014-.16-6.029c-.23-8.361-.524-16.702-1.133-25.045-.745-11.025-.563-22.069-.52-33.113q.009-3.36.014-6.719.017-8.14.049-16.281"/><path fill="#335E83" d="M203 46c3.703 1.51 5.678 3.666 8.25 6.688 2.63 3.086 5.324 5.863 8.398 8.496 5.184 4.456 9.931 9.325 14.727 14.191q2.664 2.703 5.336 5.398l2.353 2.389c1.808 1.896 1.808 1.896 3.936 2.838v2l1.665.675c3.04 1.725 5.28 4.042 7.694 6.524l1.54 1.556q2.432 2.46 4.851 4.933a2720 2720 0 0 0 6.36 6.449l1.56 1.577c3.359 3.372 6.827 6.544 10.448 9.629 4.4 3.874 8.421 8.16 12.527 12.34 4.044 4.089 8.164 7.997 12.544 11.724 1.917 1.686 3.71 3.458 5.498 5.28 2.623 2.67 5.373 4.992 8.313 7.313 4.69 4.364 4.69 4.364 6.063 7.188 1.226 2.371 2.546 2.725 4.937 3.812 1.75 1.5 1.75 1.5 3 3v2l3 1c.908 3.451 1.38 5.27-.3 8.5l-2.012 2.5-2.258 2.902L329 190a748 748 0 0 0-4.687 6.563C304.41 224.509 304.41 224.509 295 237c-3.332-1.362-4.594-2.47-6.043-5.754l-1.05-2.312-1.094-2.496q-1.191-2.615-2.391-5.223l-1.22-2.66c-1.764-3.75-3.68-7.406-5.64-11.055l-1.12-2.093q-1.137-2.122-2.278-4.241a1239 1239 0 0 1-18.117-35.09c-5.098-10.232-10.397-20.353-15.985-30.326-3.933-7.149-7.317-14.579-10.792-21.957-2.536-6.31-2.536-6.31-6.27-11.793l-.312-3.062c-.695-3.975-1.888-6.514-3.766-10.004C217.69 86.35 217.283 83.832 217 81h-2v-3h-2c-2.579-6.055-3.61-11.44-4-18h-2l-1-9h-2z"/><path fill="#3A668C" d="M683 49c0 3.229-.665 5.033-1.875 8l-1.055 2.625C679 62 679 62 677 65a83 83 0 0 0-1.437 4.25C674.265 73.295 672.71 77.114 671 81l-1 3h-2c-.23 1.016-.461 2.032-.7 3.078-2.037 8.694-4.538 16.782-8.3 24.922h-2l-.312 2.875c-2.329 15.409-10.917 28.79-18.396 42.187-4.624 8.373-8.722 16.976-12.784 25.633-4.205 8.94-8.743 17.652-13.508 26.305l-3.105 5.71-3.082 5.665c-.52.958-1.04 1.916-1.577 2.902l-1.529 2.809-1.36 2.501A237 237 0 0 1 597 236c-2.803-.345-3.813-.784-5.691-2.956l-1.649-2.52-1.835-2.752L586 225a762 762 0 0 0-3.254-4.648l-1.63-2.329-3.473-4.958q-4.793-6.84-9.557-13.702l-1.916-2.754a2220 2220 0 0 1-3.639-5.25l-1.668-2.394-1.46-2.106c-1.35-1.79-2.803-3.293-4.403-4.859-1.573-2.36-2.043-3.51-1.795-6.358.98-3.254 2.349-4.67 4.768-7.04l2.478-2.454 2.611-2.523 2.53-2.5c4.41-4.332 8.92-8.494 13.601-12.53 2.73-2.41 5.267-4.99 7.807-7.595 3.891-3.945 7.852-7.7 12.074-11.293 2.237-1.983 4.327-4.079 6.426-6.207 2.627-2.663 5.267-5.213 8.125-7.625 4.85-4.15 9.279-8.727 13.745-13.282 3.084-3.126 6.205-6.136 9.536-9C641.507 89.627 645.743 85.33 650 81c5.485-5.578 11.065-10.905 17-16a628 628 0 0 0 6.25-5.625l1.523-1.367A65.5 65.5 0 0 0 683 49"/><path fill="#3A668B" d="M455.974 171.94q2.614.12 5.23.267l2.841.135c3.069.147 6.137.309 9.205.47q4.732.235 9.466.462 3.157.152 6.316.308c6.125.298 12.248.546 18.378.711l2.096.058q4.683.127 9.368.219c16.075.422 16.075.422 20.774 5.024q1.196 1.69 2.352 3.406a534 534 0 0 0 3.227 4.094q1.701 2.2 3.398 4.406l1.734 2.223c3.008 3.91 5.791 7.659 7.641 12.277l-1 2h-1l-1 5h-2v-9l-2.937.062C547 204 547 204 546 203l-1.125 1.375C543 206 543 206 539.938 206.937c-3.052.77-3.052.77-4.313 3.188L535 212l-6-1 .395 1.828c.424 2.461.717 4.675.605 7.172-2.312 2.562-2.312 2.562-5 4h-2l1 4-2 1v3l-.5 2.312c-.548 2.947-.57 5.698-.5 8.688l-3-1v2l1.938.312L522 245l1 3h-2l3 4-6 5c0-3 0-3 2-5v-3h-2l-1 2-2-1v-2h-2c-.826-2.892-1-4.887-1-8a69 69 0 0 0-1-4l-.812 1.937C509 240 509 240 506 241l-1 6-1-3-1 5h-2l-1 3-4-1v-2l-6-1 1.125-2.25c1.122-2.649 1.122-2.649.25-4.938-1.585-2.088-2.962-2.847-5.375-3.812l6-1v-5l-3 1-4-1c-3.455 1.152-4.107 1.988-6 5-.633 2.113-.633 2.113-1 4-1.58 1.58-3.195 1.17-5.375 1.187l-2.398.043C468 241 468 241 465 239c0-2 0-2 1.5-3.625L468 234c-2.962.613-4.38 1.254-7 3-1.205 2.552-1.205 2.552-2 5l2.75-.688c3.25-.312 3.25-.312 5.625 1.125L469 244l-3 1-1 2h-3l1 5-5-2-1 2h-4v8h3l1-2 1 10-5 2c-2.67-2.67-2.272-4-2.319-7.734l-.06-3.659-.035-4.002q-.028-2.078-.059-4.154c-.051-3.677-.09-7.353-.128-11.03-.039-3.621-.09-7.243-.141-10.864-.096-7.111-.166-14.222-.222-21.333q-.035-4.261-.083-8.522c-.046-4.071-.075-8.142-.101-12.214l-.047-3.74-.013-3.41-.025-2.991c.433-4.365 2.027-4.344 6.207-4.406M473 230l-5 4h3v2h2l2-5zm-5 7v2h4l-1-3c-1.224-.075-1.224-.075-3 1"/><path fill="#7098B8" d="M508 485c2.609 2.58 5.023 5.144 7.25 8.063l1.578 2.035C518 497 518 497 518 500l3 1c1.246 1.89 1.246 1.89 2.438 4.25 1.898 3.599 3.942 6.622 6.562 9.75 4 5.556 4 5.556 4 9h2c1.191 1.512 1.191 1.512 2.563 3.688a375 375 0 0 0 8.125 12.062C554 550.207 554 550.207 554 554l3 1c-.44 5.008-1.153 9.672-2.473 14.535-.705 3.296-1.035 6.62-1.402 9.965A129 129 0 0 1 550 596.688l-.503 1.996c-.934 3.553-2.05 6.939-3.497 10.316h-2v-11l-4 1 2-5-8 3 1 2-2 1 1 3-5 2v-6h-2l-1.375 2.5L524 604h-4v3h-4l-1.437-1.5c-1.527-1.786-1.527-1.786-4.25-1.687L508 604v-3l-2 1c2-4 2-4 3.06-5.87 1.047-2.372 1.158-3.884 1.091-6.461l-.051-2.573-.088-2.768-.069-2.894q-.075-3.042-.164-6.083c-.09-3.048-.165-6.096-.238-9.144-.211-8.38-.468-16.737-1.08-25.098-.75-11.023-.567-22.066-.524-33.109q.009-3.36.014-6.719.017-8.14.049-16.281"/><path fill="#143753" d="m511 370 2 1c-.575 5.67-1.31 11.306-2.121 16.945-3.182 21.936-3.182 21.936-5.246 44-.368 5.24-1.216 9.992-2.633 15.055l3-1c-.623 4.89-2.713 8.803-4.937 13.125l-1.092 2.168c-1.54 3.035-3.078 5.868-4.971 8.707v-2l-4-2v-2l-1.875-.812C487 462 487 462 485 459v-4h-5v-2h-2c-3-5.75-3-5.75-3-8l-4-1-1-4h-3c-1.5-1.355-1.5-1.355-3-3.187l-1.598-1.946C461 433 461 433 459.562 430.437c-2.25-3.51-5.324-5.856-8.562-8.437 1.485-5.188 4.74-8.159 8.5-11.812l1.925-1.9c3.326-3.242 6.685-6.287 10.387-9.1 5-3.81 9.291-8.216 13.688-12.688 18.478-18.765 18.478-18.765 25.5-16.5"/><path fill="#2C567A" d="M494.945 683.543C497 685 497 685 497.805 687.176L498 689c-16.151 15.353-31.502 20.386-53.5 20.25l-3.8.023c-15.694-.032-28.063-3.581-40.825-12.836l-1.975-1.427c-5.595-4.212-5.595-4.212-6.9-8.01 6.93-4.712 14.263-7.83 22-11l2.598-1.129c28.13-11.975 52.911-4.033 79.347 8.672"/><path fill="#5B86A8" d="M379 482h2v116l-4 1 .092-2.057c.557-12.652 1.093-25.276.908-37.943-.873 2.917-.873 2.917-.5 5.875.68 2.89.089 5.248-.5 8.125l-2.312.313c-2.859.73-3.845 1.457-5.688 3.687l1-5-3.375 1.5C363 575 363 575 361 575v2l-3.187.688c-3.973 1.106-6.109 3.198-8.813 6.312-1.125-3.75-1.125-3.75 0-6l-3-1c-.687-2.062-.687-2.062-1-4l-2 2c-4.552-1.966-7.342-3.767-10-8-.75-2.812-.75-2.812-1-6l-.5-3.625c.072-6.26 4.249-11.287 7.5-16.375q1.506-2.59 3-5.187c2.505-4.18 5.37-7.931 8.41-11.731 1.776-2.325 3.178-4.71 4.574-7.273 3.024-5.384 6.472-10.319 10.641-14.871 3.355-3.698 5.344-7.389 7.375-11.938h2l2-6h2z"/><path fill="#618AAA" d="M388 606a1468 1468 0 0 1 7.832 7.867c4.988 5.041 9.979 9.98 15.395 14.567 1.769 1.562 3.35 3.217 4.96 4.941 4.084 4.178 8.894 7.28 13.727 10.512 2.81 1.924 5.458 3.95 8.086 6.113-1.21 3.632-2.56 4.088-5.86 5.753l-2.077.997-2.165 1.054c-11.352 5.425-22.934 9.859-35.086 13.134l-2.356.64c-4.617 1.178-8.693 1.63-13.456 1.422v-3l2-1-1-4h-3v-4h-2v-3l-2-1v2h-2v-3l-4-1 1-5h3v3c3.628-1.866 3.628-1.866 6-5h2l-2-2.375C373 643 373 643 373 641h3v-2l-1.812-.437c-1.75-.45-3.475-.992-5.188-1.563v-2h3q.971-2.874 1.938-5.75l1.09-3.234c.562-1.745 1.094-3.503 1.538-5.282C377 619 377 619 378 617h2v2c2.496-.781 2.496-.781 5-2l1-3-3-3h5z"/><path fill="#325C82" d="M280 395c7.44 2.092 12.676 8.45 17.414 14.223 2.896 3.246 6.252 5.993 9.586 8.777l-.5 2.313c-.591 2.723-.591 2.723-.5 5.687v2l2 1h-3v2h-2v2h-2v4l-1 2c-2.062.625-2.062.625-4 1l1-4h-3l2 8-3 1a141 141 0 0 0-5 5v-9l2-1c-1.833-1.125-1.833-1.125-4-2l-3 1 2 4-6 2v3l3 2-2.562 2.75c-2.122 2.426-2.122 2.426-2.375 5.563.83 1.869.83 1.869 2.937 2.687l-1 2c-4.112-2.255-7.425-5.046-10.812-8.25l-3.196-2.973c-.513-.478-1.027-.956-1.555-1.45a248 248 0 0 0-5.625-5.014l-1.851-1.63a178 178 0 0 0-4.484-3.71l-2.54-2.098-2.347-1.883C245 434 245 434 245.02 431.543c1.148-2.979 2.564-4.765 4.73-7.106l2.188-2.367C254 420 254 420 256.75 417.813c2.432-1.769 2.432-1.769 4.125-4.688 2.19-3.22 4.41-5.247 7.395-7.684 1.94-1.572 1.94-1.572 4.355-4.066 2.332-2.332 4.766-4.362 7.375-6.375"/><path fill="#45729A" d="M683 49c0 3.229-.665 5.033-1.875 8l-1.055 2.625C679 62 679 62 677 65a83 83 0 0 0-1.437 4.25C674.265 73.295 672.71 77.114 671 81l-1 3h-2c-.23 1.016-.461 2.032-.7 3.078-2.037 8.694-4.538 16.782-8.3 24.922h-2l-.312 3.313c-.7 3.747-1.002 4.347-3.688 6.687l.105-1.898.082-2.477.106-2.46L653 113l-3-2-2-2c-1.833-1.333-1.833-1.333-4-2l-1.754.941c-2.892 1.364-5.124 1.29-8.308 1.246l-3.16-.019C628 109 628 109 625 108l-.75 1.875C623 112 623 112 621.008 112.855c-2.18.977-2.18.977-2.906 3.204l-.477 2.379-.523 2.37c-.333 2.488-.333 2.488 1.898 5.192l-2 1v-2h-5l-1 4v-2h-3l-1 3-2-1v3h-4v5h-3l-1 4h-7l-1 2h-2v2l-3-1c4.216-4.304 8.422-8.578 13-12.5 2.971-2.547 5.751-5.214 8.5-8 2.627-2.663 5.267-5.213 8.125-7.625 4.85-4.15 9.279-8.727 13.745-13.282 3.084-3.126 6.205-6.136 9.536-9C641.507 89.627 645.743 85.33 650 81c5.485-5.578 11.065-10.905 17-16a628 628 0 0 0 6.25-5.625l1.523-1.367A65.5 65.5 0 0 0 683 49"/><path fill="#295477" d="M438 172c1.473 2.946 1.003 5.478.879 8.758l-.072 2.01q-.116 3.178-.245 6.357l-.158 4.309Q438.21 198.717 438 204h-3v4h-2v-7l-2-1c-.625-2.062-.625-2.062-1-4l-2 1-2-1 .625 2.875L427 202l-2 2-1-11-5 1-2-2c-3.532.321-6.634.878-10 2v-2l-1.863 1.313-2.45 1.687-2.425 1.688C398 198 398 198 395 198l1.5 1.375C398 201 398 201 398 203l6 2v2l-5 1v3l-7 2v-5h3v-4l-4-2 1-1-3.25-.375c-3.129-.521-5.085-1.026-7.75-2.625v-3h5v-2c0-3 0-3 2-5-.319-2.108-.319-2.108-1-4a227 227 0 0 1 3.25-3l1.828-1.687C394 178 394 178 398 178v3l3-2-2-3a709 709 0 0 0-5.812.875l-3.27.492c-3.091.484-3.091.484-5.918 2.633-2.043.414-2.043.414-4.187.625L376 181v-3h-5v2h-2v-3h-9l-1 3-7-1c2-3 2-3 3.96-3.494l2.412-.162 2.727-.196L364 175l2.84-.148c3.067-.14 6.134-.25 9.203-.352l3.414-.123q5.366-.192 10.73-.377 7.053-.245 14.106-.5l3.401-.123c7.14-.268 14.258-.641 21.381-1.193 2.983-.188 5.937-.215 8.925-.184m-32 22 1 2-2-1z"/><path fill="#1C4162" d="m378 459 4 1c1.659 5.757 2.25 10.708 2.06 16.676l-.054 2.506c-.06 2.71-.136 5.42-.213 8.13l-.136 5.693q-.143 5.952-.306 11.902c-.138 5.07-.263 10.14-.383 15.211a7569 7569 0 0 1-.29 11.747q-.072 2.803-.14 5.607-.1 3.926-.21 7.852l-.054 2.312c-.142 4.846-.608 9.561-1.274 14.364h-1l1-80h-2v2h-2l-.437 1.875C376 488 376 488 375 490h-2l-1 3v-2c-5.826 3.393-5.826 3.393-10.875 7.813L359 501h-2l-1 7-5 2-1 12 3-2c-1.425 3.058-3.131 5.658-5.125 8.375-3.75 5.268-6.87 10.768-9.98 16.426-1.762 2.975-3.665 5.564-5.895 8.199-5.053-9.574-8.731-19.7-12-30 4.75-3 4.75-3 7-3v-2c1.973-1.973 3.543-2.771 6-4l2-2 1.938-.312c2.98-.994 3.511-3.059 5.062-5.688h3v-2h2v-2l2.117-.988 2.758-1.325 2.742-1.3c2.647-1.307 2.647-1.307 4.383-4.387h4l.938-1.875c1.905-3.812 3.29-4.997 7.062-7.125-.791-2-.791-2-2-4l-3-1 3-1v-2l-3-1 3-1v-2l4-1 1 2h3l-.035-2.773c-.01-1.189-.018-2.377-.027-3.602l-.036-3.586C377 461 377 461 378 459"/><path fill="#3D6A90" d="M516 371h7l-2 8 1-1 2-1v4h-2v2l1.938.438C526 384 526 384 527 385l1-3-3-2c1.688-.687 1.688-.687 4-1 2.75 1.313 2.75 1.313 5 3v2h-4v2h2l1 7c3.844-3.274 5.354-7.78 7.402-12.285 1.67-2.836 2.462-3.825 5.598-4.715l3 1-2.21.996c-3.813 2.739-5.3 5.95-7.415 10.067q-1.303 2.444-2.617 4.882l-1.362 2.533c-2.251 4.067-4.694 8.011-7.146 11.96-4.923 7.973-9.483 16.041-13.691 24.417l-1.338 2.626a418 418 0 0 0-2.62 5.236l-1.234 2.416-1.09 2.184c-1.59 2.097-2.72 2.326-5.277 2.683 1.827-18.213 3.663-36.423 6.125-54.562l.48-3.613.465-3.329.4-2.87c.55-2.72 1.42-5.086 2.53-7.626h5l1-2-3-1z"/><path fill="#3D678D" d="M664 449c4.659.591 8.469 1.88 12.762 3.766l1.913.834q3.01 1.317 6.013 2.65 1.986.87 3.974 1.738c11.314 4.952 22.531 10.074 33.65 15.45 7.506 3.612 15.03 7.068 22.715 10.28 4.42 1.906 8.705 4.06 12.973 6.282-.375 1.938-.375 1.938-1 4-2.525 1.262-4.312 1.099-7.125 1.063l-2.758-.028L745 495l-1-4c-2.49-.687-4.379-1-7-1l2 1v2l-5-1 1 3h-3c-1.687-2-1.687-2-3-4l2-4-2.5-1.625C726 483 726 483 725.688 479.75L726 477l-1.75.438L718 479v-3l-7 1v-3h-3l1 3-5 4 1-7-4-1-1 3h-3c-1-5.875-1-5.875-1-7l-3.312.063C689 469 689 469 686 468v-3l-4 2-.312-1.875c-.563-2.49-.563-2.49-3.688-4.125q-3.5-.062-7 0l-4-1-3 1c0-3 0-3 1-4-.102-1.914-.102-1.914-.437-4.062zm30 16 1 3 1-3z"/><path fill="#2E5575" d="M376 376c2.393 3.59 2.821 6.827 3.438 11l.382 2.494c1.255 8.469 2.148 16.975 3.048 25.487.83 7.721 1.865 15.374 3.218 23.021.763 4.426 1.037 8.53.914 12.998-3.417-1.035-4.115-2.196-5.965-5.344a274 274 0 0 1-1.973-4.156c-.35-.728-.702-1.455-1.064-2.205A798 798 0 0 1 375 433c-4.133-8.672-8.99-16.813-14-25l3-1 .078-1.898.172-2.477.14-2.46c.61-2.165.61-2.165 2.516-3.415A47 47 0 0 1 373 395v-3l3-1z"/><path fill="#6089A9" d="M377 645h7l-1 7 2-2 1.625-1.5c1.6-1.407 1.6-1.407 1.375-3.5h3v3h2v4l2 1-.687 1.813L394 657c1.354 1.772 1.354 1.772 3 3l-1 2h2v-3l5-1v-2h4v-3h2v6h2v2c3.411 0 6.63-.491 10-1-7.524 6.273-18.623 8.29-27.937 10.813l-2.401.663c-4.7 1.23-8.806 1.75-13.662 1.524v-3l2-1-1-4h-3v-4h-2v-3l-2-1v2h-2v-3l-4-1 1-5h3v3c3.628-1.866 3.628-1.866 6-5h2z"/><path fill="#335D83" d="m632 166 1 2a115 115 0 0 1-3.5 7.25l-2.242 4.371-1.152 2.226c-1.612 3.138-3.169 6.302-4.731 9.465-2.96 5.988-6.164 11.831-9.375 17.688l-3.105 5.71-3.082 5.665c-.52.958-1.04 1.916-1.577 2.902l-1.529 2.809-1.36 2.501A237 237 0 0 1 597 236c-3-.325-3.89-.872-5.887-3.215l-1.8-2.722-1.825-2.715C586 225 586 225 585 223h3l-1-5h2v-3c2.156-2.837 4.624-3.987 8-5l3 1-1.5-1.375C597 208 597 208 597 206l3-1c1.209-2 1.209-2 2-4h-2v-2c7.429-3.286 7.429-3.286 11-4v3h5l.797-2.582c1.245-3.538 2.76-6.76 4.453-10.106l.924-1.826c7.938-15.598 7.938-15.598 9.826-17.486"/><path fill="#1E4564" d="M314 558c2.602 2.602 3.224 5.413 4.242 8.852l.635 2.096q.669 2.21 1.327 4.423c.655 2.2 1.32 4.395 1.987 6.59 8.167 27.05 8.167 27.05 7.809 34.039-3.791-.654-6.47-2.39-9.684-4.457l-3.31-2.123-1.714-1.112a1030 1030 0 0 0-5.161-3.318c-4.893-3.151-9.634-6.287-14.131-9.99l6-1 1 2 2-1v2l2.313-1.562c.886-.475 1.773-.95 2.687-1.438l3 1v-4l-2-1h2v-5h2l1 3 2-6-5 1 .879-6.152L314 573l-1-1c.09-2.357.247-4.712.438-7.062l.308-3.91z"/><path fill="#2C5375" d="m590 481 2 1-1.61 2.125c-6.287 8.445-10.23 16.271-13.826 26.11-2.181 5.904-4.623 11.678-7.126 17.452q-1.716 3.983-3.428 7.964a4780 4780 0 0 1-2.592 6.013c-2.674 6.51-4.23 12.805-5.39 19.712-.825 4.865-2.055 9.114-4.028 13.624-1.184-3.55-.704-4.677.375-8.187 1.351-4.64 2.172-9.008 2.625-13.813h-2v-6l4-1-.125-2.562c.14-3.86.953-6.775 2.125-10.438h-2v5h-3v-3l-4 1 1-8h4l2-5h2l.75-2.812c1.315-3.353 2.23-4.376 5.25-6.188l2 1 2-3 1 2c2.533-4.642 4.465-8.652 5-14l-3-2v-3l-5 2v-4l-2-1c3-1 3-1 6 0 3.248-1.722 3.248-1.722 4-5l-3-1c3.29-1.097 4.713-.8 8 0v-2h2v3l2.438-2.437z"/><path fill="#416D93" d="M606.125 395c2.072 1.105 3.408 2.166 4.875 4v2l2.238.219c3.513.994 4.658 2.48 6.95 5.281 2.523 3.23 2.523 3.23 5.812 5.5v7c-3.479 1.16-6.35 1-10 1l-3 1c-2.187-.937-2.187-.937-4-2v-2l-2-1-1 3-5-1 .563-2.75c.394-2.933.384-4.514-.563-7.25h-3v2l-5-2c9.387-13 9.387-13 13.125-13"/><path fill="#1D364B" d="M438 174h1q.2 31.486.391 62.973.09 14.632.182 29.265c.13 20.565.25 41.13.347 61.696q.067 14.55.168 29.099.065 9.73.101 19.46c.015 3.726.034 7.453.066 11.18.035 4.033.046 8.067.056 12.101l.042 3.57-.004 3.263.015 2.81c-.759 5.382-3.897 8.29-8.051 11.458-5.807 4.594-11.15 9.58-16.478 14.72-5.254 5.02-10.79 9.375-16.835 13.405 1.157-4.916 3.97-6.746 7.89-9.508 2.844-2.011 5.457-4.237 8.11-6.492l-1-2 1.75-1.355 2.25-1.832 2.25-1.793c2.01-1.923 2.01-1.923 2-4.758L422 419l7 1v-2h-2v-3l5-1v2h-2v2l3-1 1-3h3z"/><path fill="#6289A6" d="M406 624c3.56 2.978 6.96 5.918 10.125 9.313 4.108 4.2 8.929 7.324 13.79 10.574 2.809 1.924 5.457 3.95 8.085 6.113-1.218 3.654-2.638 4.131-5.967 5.8l-1.97.95-1.96.996c-1.668.821-3.384 1.545-5.103 2.254-2-1-2-1-3-2h-2c-.043-2-.04-4 0-6l1-1c-3.654-.083-6.412.103-10 1v-11l-2-1 1-4 5 1c0 3 0 3-1 5 2.537-1.355 2.537-1.355 5-3v-2c-2.648-2.362-4.615-3.872-8-5l-1-3c-1.997-1.685-1.997-1.685-4-3h2z"/><path fill="#1E4666" d="m607 583 2 1-1.522.959c-12.515 7.886-12.515 7.886-24.978 15.854l-3.34 2.144q-3.156 2.04-6.289 4.117L569.938 609l-2.536 1.688c-2.5 1.365-4.596 1.912-7.402 2.312.645-5.874 2.145-11.253 3.938-16.875l.802-2.625.787-2.492.711-2.261C567 587 567 587 569 586v2l2 1-1 2.625c-.987 3.332-1.164 5.927-1 9.375l6-2 1-6 2 2 1.813-2c2.187-2 2.187-2 5.187-2l-1-3c2.375-.125 2.375-.125 5 0l2 2 2-3 3.188.063c3.735-.062 4.633-.285 7.625-2.125 1.051-.64 2.103-1.28 3.187-1.938"/><path fill="#366288" d="M720 496c1.85 3.123 2.294 5.38 2 9l-1 1 3 1v5h-5l.063 2.25C718 517 718 517 716.035 518.152q-2.385 1.025-4.808 1.953c-2.452.897-2.452.897-5.227 2.895h-4v-2l-2.312.938A111 111 0 0 1 694 524v-2l2-1v-2.312c0-5.688 0-5.688 1.563-8.375C700 508 700 508 703.75 507.688L707 508v3l5-1-1-4 3 1-1-3v-7l1.25 1.438c1.932 1.725 3.232 2.128 5.75 2.562z"/><path fill="#19334A" d="M496 470h1c.976 10.208 1.163 20.328 1.168 30.57l.01 4.968q.009 5.16.007 10.321c0 4.41.014 8.821.031 13.232q.015 5.108.013 10.217 0 2.441.013 4.882c.01 2.264.007 4.527 0 6.791l.005 3.898C498 558 498 558 496 561c-2.696.399-2.696.399-6.177.432l-3.953.06-4.323.02q-2.243.025-4.484.054c-3.967.048-7.934.077-11.901.104-3.914.029-7.827.076-11.74.121-6.897.077-13.794.13-20.691.168q-6.72.038-13.436.108c-2.807.028-5.614.046-8.42.063-1.939.014-3.876.038-5.814.062l-3.498.014-3.052.026C396 562 396 562 393 560l3.088-.031q14.496-.148 28.992-.308 7.45-.083 14.9-.158 7.206-.073 14.414-.156 2.73-.03 5.464-.056c8.612-.082 17.219-.204 25.82-.686l3.64-.202L492 558l1-2h2z"/><path fill="#7392A6" d="M506 650h5v2h3l1 2 2.188-1.062c3.213-1.072 4.595-.823 7.812.062 2.563.73 2.563.73 5 1l3-2c-.312 1.875-.312 1.875-1 4-3 2-3 2-4.937 2.938-3.659 1.884-5.734 3.075-7.063 7.062a141 141 0 0 1-5 5l-1 1c-2 .04-4 .043-6 0 .547-3.375 1.055-5.082 3-8l-5 1c-1.998-4.122-2.338-7.44-2-12z"/><path fill="#305B82" d="m378 459 4 1c1.659 5.757 2.25 10.708 2.06 16.676l-.054 2.506c-.06 2.71-.136 5.42-.213 8.13l-.136 5.693q-.143 5.952-.306 11.902c-.138 5.07-.263 10.14-.383 15.211a7569 7569 0 0 1-.29 11.747q-.072 2.803-.14 5.607-.1 3.926-.21 7.852l-.054 2.312c-.142 4.846-.608 9.561-1.274 14.364h-1l1-80h-7v2c-1.937-.375-1.937-.375-4-1l-1-2-3-1 3-1v-2l-3-1 3-1v-2l4-1 1 2h3l-.035-2.773c-.01-1.189-.018-2.377-.027-3.602l-.036-3.586C377 461 377 461 378 459"/><path fill="#2F5E84" d="M505 332q2.125-.04 4.25-.062l2.39-.036c2.267.094 4.189.466 6.36 1.098v2l6-3c-3.728 8.098-10.357 14.548-16.562 20.813l-1.605 1.632c-3.68 3.652-7.55 6.633-11.833 9.555l2-5-2.375 2.5C491 364 491 364 489 364l.098-5.957c-.015-2.246-.015-2.246-1.098-5.043h9v-4l-2-1 6-1-2 1 1.063 2.875C501 354 501 354 500 356c3.37-2.274 3.37-2.274 5-6l3-2-4 1 1-5h2v-6l-2-1z"/><path fill="#426D90" d="M640 345h11c-2.358 2.358-3.931 2.75-7.11 3.7l-3.194.965-3.446 1.022-7.117 2.149-3.624 1.093c-5.147 1.571-10.264 3.228-15.384 4.884-20.56 6.578-20.56 6.578-26.125 5.187l16-5h-5l-1-4 4-1v2l3-1 1-2h-2v-5h8v2l3-2c2.688-.125 2.688-.125 5 0l1 3c1.938-.114 3.876-.242 5.813-.375 1.078-.07 2.157-.14 3.269-.21 3.104-.227 3.104-.227 5.918-2.415 3.188-.125 3.188-.125 6 0z"/><path fill="#193C59" d="M698 264h1c-.629 6.433-1.628 12.673-2.937 19l-.514 2.54c-.835 4.1-1.71 8.188-2.639 12.269-.69 3.08-1.235 6.106-1.535 9.253L691 311c-4 0-4 0-5.957-1.793l-1.856-2.394-1.894-2.356c-1.607-3.054-1.219-4.206-.293-7.457.063-1.436.087-2.875.063-4.312L681 289h4l-1-4 6-2v-2h2v8c1.62-5.435 2.92-10.897 4.125-16.437l.55-2.506q.665-3.029 1.325-6.057"/><path fill="#20415E" d="M745 444c2.19 3.285 3.89 6.714 5.625 10.25 2.161 4.39 4.35 8.75 6.715 13.035l1.128 2.052a334 334 0 0 0 2.18 3.877c.86 1.556 1.616 3.168 2.352 4.786l-1 3c-4.49-.593-7.985-2.437-11.875-4.625-7.554-4.147-15.28-7.814-23.125-11.375v-1c6.625-1.25 6.625-1.25 10 1v3l2.152-.035c.92-.01 1.839-.018 2.785-.027l2.778-.036C747 468 747 468 748 469l1-2h-3l3-6h-5l-1-2 5 1c-.483-2.61-1.075-4.107-2.625-6.312-1.828-3.574-1.204-5.845-.375-9.688"/><path fill="#406C91" d="M456 173c13.377-.195 26.734.324 40.1.8q5.877.206 11.755.401l7.52.264 3.526.117c5.438.199 10.734.495 16.099 1.418v3h-2v-2l-7 1 1 2-6 3v-2h-3v-4h-5v5h2v4l3 2-5 1v-3h-7v-3l4-2-1-3-3 4-5-2 4-1v-2h-16v-2l-17 2v-2h-16zm48 14 3 1 3-1 3 3c-2.076.553-3.844 1-6 1l-1 3-1-3h-2z"/><path fill="#355F83" d="M671 315q2.464 2.103 4.918 4.219a256 256 0 0 0 4.258 3.562c6.701 5.587 6.701 5.587 7.824 10.219l-1.766.48c-6.989 1.99-13.558 4.67-20.234 7.52-7.822 3.338-7.822 3.338-12 2l2.438-.687L659 341c.894-2.548.894-2.548 1-5l4 1-1 1 4 1v-2l-2-1v-2l-2-1 3-4v5l1.813-1.5C670 331 670 331 673 331l-1-4h-2c.523-2.763 1.109-5.326 2-8-.39-2.143-.39-2.143-1-4"/><path fill="#284F73" d="m584 536 2 4h2l-1 3h-2l1 2 3 1 2 1v2h-6l1 9-2.375-.5c-2.507-.562-2.507-.562-4.625-.5v7l3-1v-3h5l-2 9 2 1c-1.875 1.063-1.875 1.063-4 2l-2-1-1 3-2.312-1.062c-2.736-1.262-2.736-1.262-5.688.062 1.421-6.715 3.15-13.285 5.063-19.875l.814-2.836c.994-3.45 1.988-6.883 3.123-10.289h2z"/><path fill="#3B648B" d="M377 402h2l-.125 3.313c-.196 3.776-.196 3.776 2.125 6.687.195 2.7.195 2.7.125 5.688l-.055 3.011L381 423l-2-2-2 2v2h-3l1 5c-2.862-1.431-3.46-3.439-4.937-6.25-1.521-2.878-3.03-5.698-4.766-8.453C364 413 364 413 364.187 410.5A88 88 0 0 1 367 403l2 3h2l1.5-1.5 1.5-1.5h2l1 3z"/><path fill="#335E84" d="M565 164h3v2l2 1h-5v2l4 1-1.937 1.813c-2.266 2.095-2.266 2.095-3.063 5.187l1.375-1.5C567 174 567 174 569 174l.438 2.313c.525 2.769.525 2.769 1.562 5.687-.04 5.333-.76 9.632-4 14-5.401-5.084-10.747-10.79-13-18h2v-3h2v-4h2v3h3l-2-3c.188-2.125.188-2.125 1-4l3-1z"/><path fill="#21486B" d="M430 253h2c-.875 4.75-.875 4.75-2 7l3-1c2.188.938 2.188.938 4 2l-.016 1.697q-.029 3.808-.046 7.615l-.026 2.67-.01 2.569-.016 2.364c.033 2.281.033 2.281 1.114 5.085.109 2.757.164 5.488.168 8.246l.01 2.447q.007 2.561.007 5.122c.002 2.61.02 5.218.04 7.828q.005 2.49.005 4.978l.022 2.362c-.016 3.817-.093 6.783-2.252 10.017-1.04-3.38-1.157-6.474-1-10l1-1-5-1 4-1v-2l-3-1 5-1-1-9-4 2 1-6-2-1 2-2.687c1.989-3.294 2.437-4.596 2-8.313l-2-1 .125-2.812c.146-3.346.146-3.346-2.125-6.188-.233-3.109.005-5.014 1-8h2v-2l-3 2-3 2v-2l-3-1z"/><path fill="#2D567B" d="m165 475 2 1-1 2-5 1-1 2c-2.562.625-2.562.625-5 1l2 6-7 2-1 6h-2v2h2l1 3c-4.423-.583-7.516-2.268-11.312-4.562l-3.239-1.942L133 493c.293-1.879.293-1.879 1-4 5.364-3.138 11.14-5.347 16.887-7.691 4.041-1.7 7.988-3.579 11.933-5.489zm-9 7 3 1Z"/><path fill="#335A7C" d="m453 376 4 2v2l4 1-1 4h-3v2c3.375-.547 5.082-1.055 8-3v-3h5l-3 5 7-6 2 1a2188 2188 0 0 1-7.875 7.5l-2.262 2.168-2.168 2.05-2 1.905C460 396 460 396 458 396v2h-2v2l-5 1c-1.41-4.23-.927-8.087-.687-12.5l.107-2.629.13-2.527c.039-.761.076-1.523.115-2.307C451 379 451 379 453 376"/><path fill="#426E95" d="m636 122 1 2 3 1 .375 2.688c.57 3.016 1.391 5.515 2.625 8.312v-5h2c1.746 5.762-.131 10.162-2.625 15.438L641 149h-2l-1 2c-1.5-1.375-1.5-1.375-3-3v-2l-3 1 1-3h3v-2h-3l-.184-1.898-.254-2.477c-.08-.812-.162-1.624-.246-2.46-.207-2.208-.207-2.208-1.316-4.165h4v-2h-4l2-5h3z"/><path fill="#376187" d="M282.691 395.691c2.614 1.482 3.29 2.531 4.309 5.309l-1.812-1c-2.242-1.208-2.242-1.208-5.188-1l3 1v3l3 1c-1.375 2.5-1.375 2.5-3 5h-2v2h-3v2l3 1-3 4-3-1 2-3-4 1-1-3-7 2-1-3c3.156-5.693 11.5-17.156 18.691-15.309"/><path fill="#285178" d="M631 565v2l1.813-1.062C635 565 635 565 638 566l-3.113 1.941-4.2 2.621-2.195 1.37c-3.326 2.075-6.645 4.156-9.933 6.29l-2.934 1.903-2.586 1.695C611 583 611 583 609 583l-1-2-1.75.938c-2.093.988-3.995 1.579-6.25 2.062l1-4h2v-4l3-2 1-2c3-.687 3-.687 6-1l1 1h4l1-3h4v2c2.167-.833 2.167-.833 3-3 1.288-2.575 2.14-3 5-3"/><path fill="#2D577B" d="M240 444v3l-6 1-2 12c-5 1-5 1-8 1v-2l-4 1 1-4h-3l1 3h-2v-5l-2-1c18.25-9.125 18.25-9.125 25-9"/><path fill="#49739C" d="m575 282 6 2-1 3h-3v2h5l-1 4-2.937-.5c-2.023-.36-2.023-.36-4.063-.5v2l3 1v2h-2v3l-6 1v2l-2 1v2l-4-1v-3h-2l-2 4c0-3.854 1.208-5 3.5-8.062l2.188-2.93A577 577 0 0 1 575 282"/><path fill="#346086" d="M256 336c1.646 2.963 2.557 5.632 3 9l-1 2 7 1 1 3-7-1v2l2 1c-5.31-.472-9.733-1.936-14.703-3.824-3.934-1.403-7.91-2.58-11.922-3.738-16.816-4.88-16.816-4.88-19.375-7.438h10l2 4c5.553 2.489 12.048 2.189 18 2l-1 2 6 2-1-1q-.061-3.5 0-7l2.375-.875c2.722-.974 2.722-.974 4.625-3.125"/><path fill="#194262" d="M314 558c2.616 2.616 3.247 5.466 4.277 8.922l.643 2.11q.674 2.223 1.339 4.449a1085 1085 0 0 0 2.02 6.656c2.694 8.885 4.945 17.742 6.721 26.863l-2-1v-5h-2v-4h-3v-9h-3a93 93 0 0 1-4-1l3-7-5 1 .879-6.152L314 573l-1-1c.09-2.357.247-4.712.438-7.062l.308-3.91z"/><path fill="#2A4F6F" d="M432 555c2.688.313 2.688.313 5 1v2l4-1v2h15l1-3 3.5.625c4.606.6 8.083-.284 12.5-1.625l1 2 7-1v2l2.188-1c2.829-1.006 4.841-1.17 7.812-1-2 3-2 3-4.302 3.508-8.15.487-16.268.622-24.432.59l-4.12-.005q-5.355-.006-10.71-.024-5.492-.014-10.983-.02-10.726-.016-21.453-.049v-1l6.152-.586L423 558l1-2h5v2l1.188-1.562z"/><path fill="#1D4566" d="m664 427 17 1v8h-2v4l3 1-2 1c-2.063-.713-2.063-.713-4.57-1.871l-2.715-1.24-2.84-1.327-2.863-1.314q-3.51-1.614-7.012-3.248l4-2z"/><path fill="#477399" d="M554 310c2 3 2 3 2 6l2.313-.562C561 315 561 315 564 316l-1 5h-2v4l-9-2v-7l-3 8 5 1c-2.25 2.5-2.25 2.5-5 5h-4l-1 2h-2l2-5-3 1c1.29-2.75 2.71-5.079 4.602-7.453l1.484-1.875 1.539-1.922 1.563-1.969Q552.09 312.387 554 310"/><path fill="#3A658C" d="M654 445h-2l-1 3 2 1-1 3h-3l.563 3.938c.316 2.214.316 2.214.437 4.062-1 1-1 1-2.848 1.098L641 461l-2 4-3-1 1-4-3-1q3.432-3.475 6.875-6.937l1.973-1.999 1.894-1.904 1.746-1.761c2.753-2.547 4.045-2.44 7.512-1.399"/><path fill="#305677" d="m627 448 2 1c-5.343 4.95-10.693 9.814-16.375 14.375-6.494 5.234-12.55 10.917-18.625 16.625v-6c3-2 3-2 5.438-2.875 2.876-1.263 4.476-2.808 6.562-5.125h-3c-2.68-4.019-2.156-6.242-2-11h2v3l8-3v2h2v2c5.117-3.198 9.527-6.958 14-11"/><path fill="#3E6689" d="M632 422c3.364.25 4.14 1.158 6.438 3.75l1.257 1.617c1.923 2.407 4.097 4.488 6.305 6.633-2.722 3.607-5.537 6.489-9.062 9.313l-2.598 2.113C632 447 632 447 629 447l1.313-1.137c3.673-3.22 3.673-3.22 5.062-7.738L635 436l-3-1 1-2h4v-2l-5 1v-4h2l-2-3z"/><path fill="#1E3850" d="M381 460c3.371 3.371 2.991 7.32 3.051 11.933q-.045 2.257-.105 4.516l-.054 2.505q-.092 4.081-.197 8.163l-.131 5.701q-.14 5.97-.288 11.938-.189 7.63-.36 15.259-.135 5.886-.278 11.772-.068 2.813-.131 5.624-.092 3.94-.194 7.881l-.05 2.322c-.132 4.855-.594 9.574-1.263 14.386h-1q-.034-19.284-.052-38.569-.007-8.954-.023-17.907-.016-8.637-.02-17.273-.003-3.3-.01-6.6-.01-4.61-.009-9.223l-.01-2.772.004-2.537-.003-2.204C380 463 380 463 381 460"/><path fill="#1E4565" d="M307 534c2.906 2.906 3.207 6.419 4.063 10.313l.525 2.302A367 367 0 0 1 314 558l-1-3-2.875 1.438L305 559v-3l-2.875.063C299 556 299 556 297 555a109 109 0 0 1-1-7c2.867.573 3.861.861 6 3h2l1-4 2 1zm-10 22 2 1-2 1z"/><path fill="#25435F" d="m324 190 3 1c-1.048 3.355-2.563 5.875-4.684 8.629-3.333 4.379-6.546 8.837-9.753 13.309-4.401 6.117-8.84 12.187-13.563 18.062l-2-3h3v-3l-3-1 4-3v2c4.602-4.346 8.729-8.643 10-15 1.254-2.77 2.71-5.079 4.602-7.453l1.484-1.875 1.539-1.922 1.563-1.969Q322.09 192.387 324 190"/><path fill="#517692" d="M407 653h2v6h2v2c3.411 0 6.63-.491 10-1-7.524 6.273-18.623 8.29-27.937 10.813l-2.401.663c-4.7 1.23-8.806 1.75-13.662 1.524v-3l3.043-.332c8.836-1.01 17.33-2.452 25.957-4.668v-2h-5c0-4 0-4 2-6 2.125-.625 2.125-.625 4-1z"/><path fill="#6F8FA5" d="m464 645 2 3 2.438-.125L471 648c1.875 2.375 1.875 2.375 3 5l-1 2h-2v-3h-5l-1 2 4-1-1 6c-4.893-1.468-9.63-3.33-14-6l-1-2c1.295-2.428 2.358-3.77 4.98-4.71 1.994-.488 4.007-.894 6.02-1.29"/><path fill="#2F5C80" d="M217 323c1.098 4.291.923 7.692 0 12l-6-1v2l4 1c-2 1-2 1-4.383.223l-2.742-1.16-2.758-1.153L203 334c.545-3.873.818-4.822 3.75-7.687 6.964-4.956 6.964-4.956 10.25-3.313"/><path fill="#183855" d="m705 200 2 4h2l1-3c-.987 11.544-2.202 22.732-5 34h-1l.219-2.457c.604-7.203.911-14.316.781-21.543h-3l-1 3h-5l-1-3 2-1-1-2 2-2 3 2-2-4h5z"/><path fill="#244364" d="m431 414 1 2h-2v2h3c-1.51 3.677-3.649 5.719-6.625 8.313l-2.73 2.394L421 431l-2.05 1.824C405.965 444.356 405.965 444.356 399 449c1.157-4.916 3.97-6.746 7.89-9.508 2.844-2.011 5.457-4.237 8.11-6.492l-1-2 1.75-1.355 2.25-1.832 2.25-1.793c2.01-1.923 2.01-1.923 2-4.758L422 419l7 1v-2h-2v-3z"/><path fill="#2D567A" d="M508 346h5c-5.367 6.708-11.617 12.288-18 18 0-3 0-3 1-5l-2.375 2.5C491 364 491 364 489 364l.098-5.957c-.015-2.246-.015-2.246-1.098-5.043h9v-4l-2-1 6-1-2 1 1.063 2.875C501 354 501 354 500 356c3.37-2.274 3.37-2.274 5-6 2.063-1.187 2.063-1.187 4-2z"/><path fill="#355980" d="m519 415 3 1c-.663 3.622-2.215 6.248-4.125 9.375-2.065 3.439-4.032 6.867-5.754 10.488l-.92 1.93a635 635 0 0 0-2.525 5.469C507 446 507 446 503 447l2-17h8c1.884-3.265 2.493-6.281 3-10h2z"/><path fill="#234B6A" d="M579 560v4l3-1v-3h5l-2 9 2 1c-1.875 1.063-1.875 1.063-4 2l-2-1-1 3-2.312-1.062c-2.736-1.262-2.736-1.262-5.688.062 2.361-13 2.361-13 7-13"/><path fill="#365C82" d="M329 429c6.04.744 11.893 2.036 17.813 3.438l2.888.658 2.756.65 2.5.584C357 435 357 435 359 437q-2.657-.212-5.312-.437l-2.989-.247C348 436 348 436 345 435l-1 4-5 1 .688 1.813L340 444c-1.437 1.75-1.437 1.75-3 3v-7c-1.975.348-1.975.348-4 1l-1 2c-3.062.625-3.062.625-6 1a91 91 0 0 1 4-4h2l.375-1.875C333 436 333 436 335 434h3v2l4 1v-3l-1.703-.402c-2.39-.622-4.707-1.37-7.047-2.16l-2.422-.817L329 430z"/><path fill="#3F6C91" d="M667 311c3.237 1.834 3.968 2.912 5.25 6.5.75 3.5.75 3.5.75 6.5h-3v3h2l1 4c-4.75 3-4.75 3-7 3-2.368-6.327-3.83-10.667-1-17l2-1v-5"/><path fill="#1F3C56" d="M420.125 703.25 423 704l1 2 33 1v-2l19-1c-6.95 6.95-22.872 5.293-31.812 5.313l-3.756.016c-9.28-.071-17.695-1.11-26.432-4.329 3-2 3-2 6.125-1.75"/><path fill="#6A93B5" d="m348 626 2 4 1-2 5 1-1 7 4-1v2h-3v2h3v2h-2l1 3-4 1v3h-2c-.676-2.54-1.34-5.081-2-7.625l-.578-2.16c-1.072-4.173-1.641-7.867-1.422-12.215"/><path fill="#2D587F" d="m559 532 3 1a526 526 0 0 1-1.312 6.375l-.739 3.586C559 546 559 546 556 548c-.73 2.563-.73 2.563-1 5h2l-1 2c-2.522-1.26-2.771-2.288-3.937-4.812-1.162-2.446-2.194-4.356-3.875-6.5L547 542l1-3 3 2 1-2 3 1v-2h4v-2l-2-1z"/><path fill="#37648A" d="M665 329h1v5l1.75-1.562C670 331 670 331 672.25 331.313L674 332h-3v2l2.063-1c3.445-1.173 6.321-1.142 9.937-1l-2 2h-3l-1 3a94 94 0 0 1-8.187 3.125l-2.292.8c-4.154 1.42-8.15 2.503-12.521 3.075 3-2 3-2 5-3 .656-2.527.656-2.527 1-5l4 1-1 1 4 1v-2l-2-1v-2l-2-1z"/><path fill="#2D5376" d="m575 252 2 1v5l6-4c-1.732 3.986-4.356 7.277-7 10.688l-1.367 1.798c-3.383 4.389-3.383 4.389-5.633 5.514l1-4h2c1.46-2.647 2-3.894 2-7l-5 5c-1.534-3.069-.55-5.7 0-9l-2-1 2.313-.875c2.837-1.088 2.837-1.088 5.687-3.125"/><path fill="#20425E" d="M297 501h1l.586 1.977c1.14 3.826 2.276 7.631 3.601 11.398C303 517 303 517 303 521l-4 2-3-2v-2l-2-1v-9h3z"/><path fill="#305779" d="M258 461c2.76 2.038 5.086 4.14 7 7 .308 3.039-.208 4.99-1 8-6.75 1.125-6.75 1.125-9 0l2-5h5l-1.437-2.312C259 466 259 466 258 463c-3.248 1.722-3.248 1.722-4 5h-2v-6l-3 2 1-4c3.481-1.243 4.853-.828 8 1"/><path fill="#38648A" d="M632 461c2 3 2 3 1.625 6.188L633 470h-2l-.187 2.313C630 475 630 475 627.438 476.813L625 478l-1-2c-2.527-.656-2.527-.656-5-1a186 186 0 0 1 13-14"/><path fill="#1C384E" d="m136 463 1 4 4 1-5 1-.437 1.813c-.45 1.749-.992 3.474-1.563 5.187h3v-2h4v-2c3.839-1.483 6.062-2.224 10-1a1434 1434 0 0 1-8.125 3.938c-1.14.56-1.14.56-2.305 1.13-4.2 2.01-7.874 3.46-12.57 3.932.721-3.722 2.293-6.818 4-10.187l1.625-3.231C135 464 135 464 136 463"/><path fill="#274159" d="M564 535c1.297 3.892.37 4.978-1.25 8.688-2.375 5.864-3.68 11.46-4.719 17.684-.83 4.865-2.057 9.116-4.031 13.628-1.184-3.55-.704-4.677.375-8.187 1.351-4.64 2.172-9.008 2.625-13.813h-2v-6l4-1v-6h3l.438-1.937C563 536 563 536 564 535"/><path fill="#2D587B" d="M225 483h5l-1 2 3 1v2h-2l1 4v-2l4 1 1 4h-2l-.187 2.375L233 500c-2.562 1.313-2.562 1.313-5 2l2-6h2l-1-2h-5l-1 2v-4l-3-1v-2h3v-6"/><path fill="#264662" d="m568 586 1 2 2 1-1 2.625c-.987 3.332-1.164 5.927-1 9.375l5 1v2h-5v3l-3-1v-3l-1 1-4 4c1.732-7.639 3.869-14.815 7-22"/><path fill="#284C6D" d="m710 519 3 1-3.332 1.941-4.48 2.621-2.339 1.367a294 294 0 0 0-15.845 9.989L685 537l-2-1c1.933-2.025 3.632-3.421 6-5v-1l8-2v-2l-6 2c1.043-3.244 2.612-4.602 5.438-6.312C700 520 700 520 703 521l-1 2c4.299-1.519 4.299-1.519 8-4"/><path fill="#366085" d="m612 481 2 2 3-2 2 1v2h-2v3l-1.937.75c-2.25 1.066-2.25 1.066-2.813 3.375L612 493l-4-1v-3c-4.179 2.564-7.125 5.02-10 9l-2-1c4.884-5.904 10.172-11.03 16-16"/><path fill="#31567C" d="m214 454-1 6c-4.333.928-7.667.928-12 0v9l-2-1v-2h-4l-1-2-2 3v-2l-3-1q3.915-1.78 7.832-3.555a601 601 0 0 0 6.242-2.89l2.926-1.368 2.688-1.269C211 454 211 454 214 454"/><path fill="#7C99AD" d="m520 652 2.188.438L525 653l2.625.688c2.639.612 2.639.612 5.375-1.688-.312 1.875-.312 1.875-1 4-3 2-3 2-4.937 2.938-3.659 1.884-5.734 3.075-7.063 7.062-1.875 1.75-1.875 1.75-4 3l-3-1 3-2v-4c1.375-1.562 1.375-1.562 3-3 2.307-2.715 2.307-2.715 1.625-5.187z"/><path fill="#386387" d="M586.2 240.68c1.8 1.32 1.8 1.32 2.862 4.07-.088 4.623-1.884 5.994-5.062 9.25-.687-1.812-.687-1.812-1-4 1.438-1.75 1.438-1.75 3-3l-5 1v4l-3-1c-1.187-3.062-1.187-3.062-2-6 1.236-.894 2.49-1.765 3.75-2.625l2.11-1.477C584 240 584 240 586.2 240.68"/><path fill="#457094" d="M456 173c9.594-.145 19.162.092 28.75.438l3.44.118c6.964.264 13.878.733 20.81 1.444v1l-20 1v-2l-17 2v-2h-16z"/><path fill="#648FB1" d="M390 611c3.169.577 4.782 1.416 7.016 3.723l1.601 1.63 1.633 1.71 1.68 1.72A731 731 0 0 1 406 624l-1 2-6-4-1 3-2-1v-4h-3v-2h-7l1.438-1.25c1.725-1.932 2.128-3.232 2.562-5.75"/><path fill="#5E8BAD" d="m345 547 2 1c-.812 2.438-.812 2.438-2 5l-3 1-1 2h-2l1 5h-3l-2 5-2-1c-.414-2.285-.414-2.285-.625-5.062l-.227-2.786L332 555l2-1v-2l1.898-.078 2.477-.172 2.46-.14c2.353-.402 2.353-.402 3.454-2.657z"/><path fill="#284762" d="M383 425h1q.76 4.53 1.5 9.063l.434 2.568c.788 4.862 1.226 9.444 1.066 14.369-3.092-1.066-4.004-2.006-5.812-4.812-1.259-3.378-1.278-4.82-.188-8.188h1z"/><path fill="#28465F" d="M640 345h11c-2.459 2.459-4.352 2.895-7.672 3.91l-3.453 1.06-3.625 1.092-3.578 1.104c-5.22 1.59-10.266 3.03-15.672 3.834v-2l2.5-.812c6.873-2.29 6.873-2.29 13.5-5.188 2-.04 4-.043 6 0z"/><path fill="#38658E" d="m730 496 3 1 1 3h3l3 1c-2.295 2.442-4.739 4.354-7.5 6.25l-2.344 1.64L728 510l-3-1 4-4-1-3c.938-3.187.938-3.187 2-6m5 2h2v2h-2z"/><path fill="#466D90" d="m633 438 3 1c-1.503 3.668-3.637 5.69-6.625 8.25l-2.477 2.14L625 451l-3-1 4-4-3 2-3-1 2-2c.167-2.584.167-2.584 0-5l3-1v3h3v2h2l.938-2.437C632 439 632 439 633 438"/><path fill="#11283D" d="M248.438 421.25 250 422l-2.312 1.813c-2.561 1.961-2.561 1.961-3.993 3.667-2.284 2.048-4.658 2.902-7.507 4.02-3.355 1.339-6.635 2.656-9.813 4.375L224 437l-2-1 2-3 1-2 2.688.188c3.684-.209 5.293-1.175 8.312-3.188h2l1-3c2.871-2.321 5.706-4.133 9.438-3.75"/><path fill="#7D9BAE" d="M550 574h1c.334 7.808-.937 14.928-2.5 22.563l-.723 3.634A1749 1749 0 0 1 546 609h-2c.491-8.131 1.353-16.02 3-24h2v-6h-3l-1 2v-4l5 1z"/><path fill="#4A7297" d="m539 330 1 2c-.937 2.625-.937 2.625-2 5h-2c-1.255 3.766-.37 5.372 1 9l-2.875.875c-3.177.893-3.177.893-5.125 3.125l-1-3-2 1c1.73-4.004 4.394-7.279 7.063-10.687l1.392-1.8c3.366-4.334 3.366-4.334 4.545-5.513"/><path fill="#243E57" d="M568 272c0 3.373-.404 3.902-2.379 6.477l-1.534 2.021-1.65 2.127c-.545.715-1.09 1.43-1.653 2.166A1254 1254 0 0 1 556 291l-2.355 3.055A860 860 0 0 1 549 300c0-3.58.818-4.463 2.875-7.312 2.42-3.495 3.95-6.575 5.125-10.688l2-3h3v-3c2.438-1.625 2.438-1.625 5-3z"/><path fill="#0B2236" d="m188 447 3.25.563c3.154.367 4.848.482 7.75-.563-2.178 2.399-4.201 3.76-7.133 5.121l-2.445 1.147-2.547 1.17-2.477 1.158A997 997 0 0 1 177 459l-2.554 1.176-2.438 1.11-2.191 1C168 463 168 463 166 463v-2l11-5v-3h2v2l6-1 1-4 4 1z"/><path fill="#0E243B" d="m632 166 1 2a115 115 0 0 1-3.5 7.25l-2.238 4.36-1.151 2.224a362 362 0 0 0-3.029 6.057c-3.064 6.257-6.241 12.29-10.082 18.109l-1-2c.725-1.797.725-1.797 1.914-3.965l1.3-2.409 1.411-2.564c2.892-5.354 5.751-10.667 8.188-16.25 2.003-4.578 4.434-8.643 7.187-12.812"/><path fill="#14344E" d="m279 374 2 1c.145 3.25.234 6.498.313 9.75l.126 2.79c.125 6.869.125 6.869-2.959 10.1-.818.45-1.637.898-2.48 1.36l-4-2 2-1 1-3h2c1.18-3.848 1.332-7.758 1.563-11.75l.13-2.113q.158-2.569.307-5.137"/><path fill="#244462" d="M596 354h3v2h5v2l3.125-1c3.36-.972 6.366-1.171 9.875-1-3.878 2.21-8.05 3.284-12.312 4.5l-2.225.645a734 734 0 0 1-4.372 1.25 212 212 0 0 0-5.884 1.824C589 365 589 365 585 364l16-5h-5c-.562-1.937-.562-1.937-1-4z"/><path fill="#2B557A" d="M340 193h5c.25 2.313.25 2.313 0 5-1.75 1.813-1.75 1.813-4 3h-4v2l2 1c-5.625 2-5.625 2-9 2 1.375-2.5 1.375-2.5 3-5h2l.813-1.75c1.226-2.324 2.435-4.288 4.187-6.25"/><path fill="#214869" d="m369 328 1 3-1 2h3v3h5v2h-3v2l3 1-1 4-5-5-2.687-2.562c-2.025-2.134-3.216-3.746-4.313-6.438z"/><path fill="#426789" d="M314 285c5.232 2.462 7.776 6.41 11 11l1.68 2.066C328 300 328 300 328 303l-3-1-1 2h-2v-4l-2-1v-7c-3.05-1.011-3.05-1.011-6 0z"/><path fill="#294561" d="m748 494 5 1c-3.701 4.015-8.418 6.464-13.062 9.25l-2.8 1.719c-.882.53-1.764 1.062-2.673 1.61l-2.45 1.48L730 510l-2-1 2.406-1.46 3.094-1.915 3.094-1.898L739 502v-2h2v-3l7-1z"/><path fill="#315D82" d="M580 204h5l1 2-4 6 4-1-1 5-1-3h-2l3 9c-3.904-3.47-6.366-7.552-9-12h3v-2l2-1z"/><path fill="#1A3A54" d="m673 431 1 3-1 2 4 2v-2h2v4l3 1-2 1c-2.063-.713-2.063-.713-4.57-1.871l-2.715-1.24-2.84-1.327-2.863-1.314q-3.51-1.614-7.012-3.248v-1q2.124-.254 4.25-.5l2.39-.281C669 431 669 431 673 431"/><path fill="#2F4D68" d="M582 366c-4.979 3.32-10.796 4.501-16.5 6.188-1.25.38-2.498.761-3.785 1.154l-3.621 1.076-3.323.993C552 376 552 376 549 375c3.858-2.153 6.551-3.393 11-3v-3c7.473-2.157 14.21-3.465 22-3"/><path fill="#335C7C" d="m213 323 2 1-8 8 4 1v2l4 2c-2 1-2 1-4.383.223l-2.742-1.16-2.758-1.153L203 334c.546-3.967.827-4.835 3.875-7.75C210 324 210 324 213 323"/><path fill="#3D5F7E" d="M203 46c3.755 1.524 5.808 3.773 8.438 6.813 3.089 3.522 6.196 6.93 9.562 10.187l-1 2-3-1v-4h-4c-2.187-1.937-2.187-1.937-4-4l-1-1v5c-1.858-3.135-2.201-5.375-2-9h-2z"/><path fill="#6D92AF" d="M380 482h1v41l-3-1 .063-2.75c-.052-2.677-.285-4.72-1.063-7.25h2v-2h-3l1-2 3 1z"/><path fill="#294F71" d="M486 694h2l1 3-11 7-1-2-3.75 1c-2.996.799-5.051 1-8.25 1v-2h3v-2l5-1v2l3.75-.937L485 698z"/><path fill="#54758C" d="M437 650v3a1003 1003 0 0 1-6.875 3.563l-1.973 1.037c-1.687.86-3.418 1.637-5.152 2.4-2-1-2-1-3-2h-2l1-4v2h2l1-4 7 3-1-3 2.813.125c3.345.146 3.345.146 6.187-2.125"/><path fill="#749AB6" d="M341 594c2.097 3.146 2.52 5.015 3.125 8.688l.508 3.011L345 608l2.875.938C351 610 351 610 353 611l-1 3-1-2c-2.527-.656-2.527-.656-5-1l1 3.25c1 3.75 1 3.75 1 7.75h-2a2205 2205 0 0 1-2.5-10.625l-.723-3.027c-1.126-4.86-2.12-9.321-1.777-14.348"/><path fill="#446077" d="M379 564h1l1 34-4 1c.14-3.959.289-7.917.438-11.875l.119-3.36c.253-6.622.684-13.181 1.443-19.765"/><path fill="#365572" d="m300 481 1 2h3l1.25 2.75c1.525 3.244 1.525 3.244 3.813 5.188 3.217 3.425 3.866 7.4 4.062 12L313 505c-2.227-2.79-3.782-5.503-5.25-8.75-2.51-5.173-5.767-9.14-9.75-13.25z"/><path fill="#345A80" d="M478 451v2h2l1 7c-5.75 1-5.75 1-8 1-.293-6.055-.293-6.055 0-8 3-2 3-2 5-2"/><path fill="#456E93" d="m451 173 3 1-2 2c-.277 2.133-.277 2.133-.195 4.57l.02 2.715.05 2.84.027 2.863q.036 3.507.098 7.012h2v2h-2v5h-2q-.037-6.168-.055-12.335-.008-2.1-.02-4.2a1698 1698 0 0 1-.023-6.024l-.016-3.665C450 174 450 174 451 173"/><path fill="#243E59" d="M215 338h10l2 4c5.553 2.489 12.048 2.189 18 2l-1 2 7 3c-3.165 1.039-4.894.971-8-.187l-2.375-.856L238 347q-2.997-1.008-6-2l-3.055-1.023a419 419 0 0 0-5.64-1.829l-2.43-.773-2.133-.664C217 340 217 340 215 338"/><path fill="#3A5569" d="M408 666q-3.432 1.044-6.871 2.066-3.337.997-6.664 2.024l-3.652 1.097-3.418 1.043c-3.571.81-6.746.904-10.395.77v-3l3.113-.332c7.448-.839 14.495-1.834 21.653-4.18 2.46-.537 3.876-.294 6.234.512"/><path fill="#18334C" d="m607 583 2 1a1926 1926 0 0 1-9.312 6l-2.67 1.734-2.569 1.641-2.364 1.523C590 596 590 596 587 596l3-4-3-1 2.438-.875c2.695-.858 2.695-.858 3.562-3.125l3.063.25c3.707-.235 4.77-.491 7.75-2.312 1.051-.64 2.103-1.28 3.187-1.938"/><path fill="#254665" d="M678 534v3h3l2 1c-11.312 7.615-11.312 7.615-14 9l-2-1 4-2-.687-2.312c-.313-2.688-.313-2.688 1-4.5C673 536 673 536 675 536z"/><path fill="#586E80" d="m481 659 5 2-1 3 2.3.805 3.012 1.07 2.989 1.055C496 668 496 668 499 670c-5.67-.603-10.648-2.068-16-4l-3.02-1.086q-3.993-1.446-7.98-2.914c3.216-1.746 5.32-2.204 9-2z"/><path fill="#294C69" d="m270 572 3 2c2.153-.308 2.153-.308 4-1l.875 1.938c.953 2.214.953 2.214 3.125 3.062-1 3-1 3-2 4-3.623-1.326-6.635-2.943-9.812-5.125l-2.395-1.633L265 574l1.938-.437c2.037-.373 2.037-.373 3.062-1.563"/><path fill="#18344D" d="M757 471c3 1 3 1 4.75 3.875C763 478 763 478 762 481c-3.76-.581-6.53-1.652-9.812-3.562l-2.395-1.38L748 475l3-1 2 1 1-2 2 1z"/><path fill="#7196B4" d="M378 556h1c.133 12.374-.233 24.65-1 37h-1l-.148-1.828-.227-2.422c-.07-.789-.14-1.578-.21-2.39-.43-2.446-1.201-4.208-2.415-6.36h2l.184-2.738.253-3.574.247-3.551C377 567 377 567 378 564l-2-1z"/><path fill="#365A7A" d="M369 357c3.828 3.425 5.868 5.957 7 11 .125 3.375.125 3.375 0 6l-1-2c-2.527-.656-2.527-.656-5-1 .875-4.75.875-4.75 2-7h-2zm2 15 2 2-2 1z"/><path fill="#4E789F" d="M588 265c0 3.311-.231 5.2-2.562 7.625L584 274v1l7 1-1.75.313c-2.312.556-2.312.556-4.062 2.125-2.877 2.054-5.784 2.711-9.188 3.562 1.745-4.052 4.423-7.306 7.125-10.75l1.418-1.824Q586.269 267.21 588 265"/><path fill="#446991" d="M536 179c5.75 3.625 5.75 3.625 8 7v3l-3.187-.5c-3.018-.396-5.784-.592-8.813-.5.645-3.485 2.101-6.028 4-9"/><path fill="#1B3850" d="M701 451c2.343.256 4.678.593 7 1l1 2c1.888.685 1.888.685 4.063 1.125l2.222.508L717 456v2l8-2-1 4 3 2v2c-5.697-1.649-10.748-4.305-16-7q-2.811-1.41-5.625-2.812L701 452z"/><path fill="#487298" d="M592 408v3h1l3 1c-1.75 2-1.75 2-4 4h-4l-2 3h-2v2h-2l-1 3-3-1c4.464-5.223 9.074-10.21 14-15"/><path fill="#426D92" d="m451 205 6 2v1h-5v5h2v4h-2v31h-1z"/><path fill="#264C69" d="m634 146 1 2c1.817.934 1.817.934 4 1 2.248-1.352 2.248-1.352 4-3-.577 4.787-2.64 8.251-5.062 12.313l-1.143 1.955A836 836 0 0 1 634 165l-1-2 1.438-2.75c1.653-3.438 1.83-5.496 1.562-9.25v3l-3-1z"/><path fill="#1F405A" d="M721 397c4.138 4.433 5.955 9.399 8 15l-4 2-2-6h2v-3h-4v-3h-2v-4z"/><path fill="#265170" d="m668 351-2 3a75 75 0 0 0-1 5h-3v-3l-2.875.563C656 357 656 357 654 356v2h-3c1-3 1-3 3.836-4.422l3.539-1.328 3.523-1.36C665 350 665 350 668 351"/><path fill="#477499" d="M599 251c2.153 2.153 2.641 3.04 3 6l-2 3-2.812-.125c-3.421-.199-3.421-.199-6.063 2.625L589 265c1.57-5.024 4.601-9.047 8-13z"/><path fill="#1A4363" d="M737 429c3.165 1.583 3.711 4.397 5.125 7.563l1.633 3.628L745 443l-2 1-1-3-1.25 1.563L739 444c-2.187-.312-2.187-.312-4-1h2v-2h-2l.938-1.812c1.898-3.91 2.077-6.015 1.062-10.188"/><path fill="#274863" d="m512 332 6 1v2l6-3c-1.564 3.522-3.695 6.271-6.125 9.25l-2.195 2.703L514 346c0-3.576 1.088-5.053 3-8l-6-2z"/><path fill="#345A7A" d="M491 684c2.375-.125 2.375-.125 5 0l2 2c-.188 2.82-1.03 4.037-2.812 6.25C493 694 493 694 489 694c.498-3.688 1.1-5.605 4-8z"/><path fill="#1B3751" d="M152 431h1a109 109 0 0 1-1 7l-2 1c-.874 2.011-.874 2.011-1.562 4.375l-.754 2.398L147 448c-1.245 3.736-2.634 4.188-6 6 1.557-5.354 3.982-10.002 6.625-14.875l1.273-2.375q1.546-2.878 3.102-5.75"/><path fill="#304F71" d="m282 355 3 1-1 3 13 2v3c-8.668-1.366-16.747-4.117-25-7 3.717-1.136 5.47-.667 9 1z"/><path fill="#395C7D" d="M415 174v1c-4.638.79-8.988 1.076-13.691.938-2.378-.002-2.378-.002-4.938.59-4.634.649-9.089.324-13.746.035l-2.809-.159A1331 1331 0 0 1 373 176v-1c14.013-.916 27.96-1.123 42-1"/><path fill="#214769" d="m335 512 2 1-1.5 1.875c-1.692 1.964-1.692 1.964-1.5 4.125l-3-1-2 6c-2.915.81-4.461 1.218-7.312.063L320 523c4.75-3 4.75-3 7-3v-2c1.973-1.973 3.543-2.771 6-4z"/><path fill="#3C6485" d="m667 311 4 4h-2l2 5h-2l-2 5 2 1h-4l-2-2c.599-2.352 1.27-4.686 2-7l2-1v-5"/><path fill="#465B6C" d="M533 654c0 3 0 3-1.504 4.648l-2.058 1.727-2.192 1.84c-3.005 2.388-6.083 4.61-9.246 6.785l-2-1 1.938-.75L520 666l.375-1.812c1.028-3.6 3.683-5.054 6.625-7.188 2.25-.687 2.25-.687 4-1z"/><path fill="#365D83" d="M367 408h10v2h-5v3l-2 1v2h-2l-1 2-3-6h2z"/><path fill="#224D6E" d="M710 166h3v13l-3 1-1-4-4 1c0-2 0-2 1.313-3.625C708 172 708 172 711 172v-3h-2z"/><path fill="#3D6389" d="M313 158h7l1 3-6 1c3.29 1.097 4.713.8 8 0l2 5c-1.626-.087-3.25-.195-4.875-.312l-2.742-.176C315 166 315 166 313 163c-.125-2.687-.125-2.687 0-5"/><path fill="#25435E" d="M678 336a1759 1759 0 0 1-12 5l-2.437 1.035c-3.669 1.494-5.789 2.173-9.563.965l2.438-.687L659 341c.894-2.548.894-2.548 1-5l4 1-1 1c3.459-.407 6.515-.802 9.75-2.125C675 335 675 335 678 336"/><path fill="#416688" d="M656 303c4.379.505 6.817 3.178 10 6-1.914 3.828-2.897 4.527-7 6v-7l-3-1z"/><path fill="#1B3952" d="M307 534c2.906 2.906 3.207 6.419 4.063 10.313l.525 2.302A367 367 0 0 1 314 558l-1-3h-3v-7h-3z"/><path fill="#19344D" d="M564 535c1.326 3.979.243 5.374-1.375 9.188-2.05 5.075-3.305 9.365-3.625 14.812h-1c-.107-6.44.038-12.626 1-19h3l.438-1.937C563 536 563 536 564 535"/><path fill="#2E4C66" d="m519 415 3 1c-.672 3.829-2.449 6.692-4.437 10-1.97 3.29-3.908 6.54-5.563 10l-2-4 2-2c2.852-3.195 3.52-5.769 4-10h2z"/><path fill="#2E5A7F" d="M505 316h2v4l6-4 2 1v2l-3 1-1 2h3l-1 3-9-3z"/><path fill="#47739C" d="M658 107c1 2 1 2 .293 4.785l-1.106 3.278-1.082 3.285C655 121 655 121 653 122l.105-1.898.082-2.477.106-2.46L653 113l-3-2h2v-3l1.875.625L656 109z"/><path fill="#1D3F5D" d="m564 601 4 1-.625 1.875L567 606l2 2c-2.834 3.254-4.686 4.52-9 5-.25-2.25-.25-2.25 0-5a91 91 0 0 1 4-4z"/><path fill="#122E41" d="M321 580c2.897 4.345 3.836 9.053 5.188 14.063.285 1.019.57 2.038.865 3.087l.802 2.948.74 2.703C329 605 329 605 328 607c-1-1-1-1-1.062-3.562L327 601h-2v-4h-3l.035-1.687c.062-5.21-.285-10.157-1.035-15.313"/><path fill="#204D71" d="m613 572-3 1c-.733 2.015-.733 2.015-1 4h-5v2h6l-1.75.813c-2.307 1.138-2.307 1.138-4.375 2.812C602 584 602 584 600 584l1-4h2v-4l3-2 1-2c3.51-1.245 3.51-1.245 6 0"/><path fill="#305776" d="m300 412 7 6h-3l-1 1 2 2-8 2v-5l3-1z"/><path fill="#1C3753" d="m474 380 2 1-16 15-2-1 1.531-1.285c4.478-3.96 4.478-3.96 5.906-9.652L465 381h5l-3 5z"/><path fill="#1F3E5D" d="m644.504 555.902 3.058.035 3.067.028L653 556c-3.997 3.372-8.27 6.714-13 9l-2-1c1-2 1-2 4-3l1-3-2-1c1-1 1-1 3.504-1.098"/><path fill="#162F46" d="m549 377-2.176.93c-4.06 2.977-5.74 6.777-8.011 11.195q-1.295 2.477-2.606 4.945l-1.141 2.212C534 398 534 398 532 399c1.475-4.896 3.497-9.25 5.875-13.75l1.027-2.035c1.442-2.736 2.649-4.886 5.168-6.73C546 376 546 376 549 377"/><path fill="#24415A" d="M535 316c0 3.719-.958 4.583-3.25 7.438l-1.828 2.308c-1.878 2.202-3.847 4.239-5.922 6.254.087-1.439.196-2.876.313-4.312l.175-2.426c.605-2.674 1.381-3.584 3.512-5.262a208 208 0 0 1 5-2z"/><path fill="#466D8F" d="M677 454c7.444 2.233 14.12 5.403 21 9l-1 2-2.23-1.094-2.957-1.406-2.918-1.406c-2.884-1.09-4.849-1.317-7.895-1.094l1-3-5-1z"/><path fill="#44698E" d="M321 369c5.525-.47 8.883.64 13.844 3.043 2.675 1.187 5.254 1.66 8.156 1.957v2c-5.946-.391-10.548-1.428-16-4a247 247 0 0 0-6-2z"/><path fill="#122E48" d="M611 206c1 3 1 3 .044 5.344l-1.501 2.726-1.623 2.965-1.732 3.09-1.698 3.113c-4.215 7.624-4.215 7.624-6.49 8.762l.938-2.625c.987-3.137 1.598-6.126 2.062-9.375h3l.688-1.937c1.798-4.196 4.051-8.102 6.312-12.063"/><path fill="#345A7D" d="M417 173c2.95-.22 5.684-.28 8.625-.187l2.43.04c1.982.036 3.963.09 5.945.147v2l-3 1c-1.209 2-1.209 2-2 4l-1-5h-11v2l-2-1z"/><path fill="#0F273E" d="M222 437c-3.678 2.452-7.519 4.283-11.5 6.188l-2.34 1.154-2.254 1.076-2.052.993C202 447 202 447 199 446c2.647-1.46 3.894-2 7-2v-4l3.25-.375c3.574-.407 3.574-.407 5.875-1.687 2.383-1.192 4.247-1.084 6.875-.938"/><path fill="#14354B" d="m698 245 2 3h2a592 592 0 0 1-.375 5.813c-.07 1.078-.14 2.157-.21 3.269C701 260 701 260 699 263l1-11h-3l-1 2-1-3h2l-1-5z"/><path fill="#1E3D57" d="M326 604c3.938 4.308 3.938 4.308 4.25 7.813L330 614c-3.995-.615-6.775-2.655-10-5v-1h6z"/><path fill="#476887" d="M329 304h2c2.217 2.496 4.072 5.277 6 8l1.316 1.762c1.122 1.55 1.122 1.55 2.684 4.238l-1 3-1.242-1.715-1.633-2.223-1.617-2.214c-1.388-1.959-1.388-1.959-3.508-2.848v-2l-3-1z"/><path fill="#4B759A" d="M621 272c5.14 1.402 8.796 4.854 12 9v3c-3-1-3-1-5-4l-2 1-2-5h-4z"/><path fill="#4B6C8B" d="M600 251a1462 1462 0 0 1 15 13l-4 1v-2l-1.625-.687c-4.13-2.283-7.807-4.487-9.25-9.125z"/><path fill="#295277" d="M378 462h2c1.655 3.31 1.1 6.991 1.063 10.625l-.014 2.43q-.02 2.972-.049 5.945l-2 1-2-5h2z"/><path fill="#1B3249" d="M737 465v3h3v2l2.313.438C745 471 745 471 748 472v2c-7.444-2.233-14.12-5.403-21-9v-1c4.078-.927 6.422-1.34 10 1"/><path fill="#38678F" d="m273 267 1 3-2 1c.776 3.075.776 3.075 3 5l-4 1v2l-3-1v-3l-3-1z"/><path fill="#6796BA" d="m510 487 8 10-1 2-4-1v-2h-2l-1 4z"/><path fill="#356186" d="m655 483 3 2-1 5-4 1v-2l-4 1v-3c1.915-1.66 3.736-2.868 6-4"/><path fill="#30587D" d="M162 480h6l-1 4-3-2 1 3-2 2 3 1v2l-4 2v-2l-2-1z"/><path fill="#1A3E60" d="m627 411 4 1h-2v2h5v3l5 1-1 2-5-2 1 4-2-1v-3h-3c-2-3-2-3-2-7"/><path fill="#0A2135" d="m417 431 2 1c-6.221 6.48-12.533 12.022-20 17 1.147-4.876 3.871-6.642 7.758-9.375 3.626-2.628 6.915-5.634 10.242-8.625"/><path fill="#416A8C" d="m586 247-1 3h-2l-.312 2.313c-.735 2.871-1.36 3.917-3.688 5.687h-2l-1-6h5v-4c3-1 3-1 5-1"/><path fill="#345471" d="m294 228 4 1c-.25 2.875-.25 2.875-1 6-2.062 1.375-2.062 1.375-4 2-2-2-2-2-2.125-4.625L291 230l4 1z"/><path fill="#517696" d="M478 174c21.723-.191 21.723-.191 31 1v1l-20 1v-2h-11z"/><path fill="#2D567C" d="M321 159a105 105 0 0 1 5 4v2l1.938.875C330 167 330 167 331 169c-3.674-.306-4.781-.758-7.312-3.562L322 163l-6 1-2-3h7z"/><path fill="#375B81" d="M427 672v3l-2.121-.16c-4.471.249-8.023 2.295-12.04 4.164-2.913 1.022-4.028 1.122-6.839-.004 15.015-7 15.015-7 21-7"/><path fill="#1E3952" d="M625 574q-3.432 2.258-6.875 4.5l-1.973 1.3c-4.925 3.2-4.925 3.2-7.152 3.2 1.462-4.63 1.462-4.63 4-6.375 2-.625 2-.625 4 .375v-2c4.625-2.125 4.625-2.125 8-1"/><path fill="#365F87" d="M559 542v4l-3 2c-.73 2.563-.73 2.563-1 5h2l-1 2c-2-1-2-1-3.187-3.75-.824-3.294-.757-5.04.187-8.25 3-1 3-1 6-1"/><path fill="#244F72" d="M494 532h1v8l-2-1-1 2h-3v-5l1.938-.875c2.214-.953 2.214-.953 3.062-3.125m-6 9 2 3-3 1z"/><path fill="#28435E" d="m302 592 1 2 2-1v3h2v2l2 1v2c-4.776-1.642-8.794-4.265-13-7 3-2 3-2 6-2"/><path fill="#375B7A" d="M189 465v2q-4.185 1.755-8.375 3.5l-2.406 1.012-2.305.957-2.126.888C172 474 172 474 170 474l-1 2-2-2q3.871-1.976 7.75-3.937l2.21-1.131 2.15-1.084 1.967-1C183.718 465.683 186.11 465 189 465"/><path fill="#0A2133" d="M151 471a985 985 0 0 1-8.312 4.063l-2.381 1.181-2.295 1.104-2.11 1.031C134 479 134 479 131 478c3-2 3-2 6-2v-2h4v-2c3.839-1.483 6.062-2.224 10-1"/><path fill="#44719A" d="m556 307 2 1a76 76 0 0 0 5-1l1 3h2v3h-5v-2l-4 1v-2h-2z"/><path fill="#3D688F" d="m293 254-2 3 1 2-2 2h-2v-2h-5c5-6.5 5-6.5 10-5"/><path fill="#1D486D" d="M568 595h1v6l5 1v2h-5v3l-3-1c0-9 0-9 2-11"/><path fill="#547E9F" d="M344 546c.625 1.875.625 1.875 1 4-2.787 2.787-5.154 2.657-9 3l-2-1 1 3h-3c.602-2.02 1.273-4.021 2-6l2-1v3l5-1v-2z"/><path fill="#396082" d="M697 526v2l-3.437 1.375c-3.61 1.196-3.61 1.196-4.563 3.625-2.375 1.688-2.375 1.688-5 3l-3-1c3.955-4.593 9.641-9 16-9"/><path fill="#60859A" d="M423 640c3.972 2.173 6.77 3.77 10 7l-11 2 1-3h2v-4h-2z"/><path fill="#7D9DB3" d="m468 639 1 2-3 3 2 2 3-1v2l-5 2-2-3-6 1c3.023-3.255 6.257-5.618 10-8"/><path fill="#7C9CB4" d="M550 574h1c.236 5.778-.132 10.513-2 16h-2v-5h2v-6h-3l-1 2v-4l5 1z"/><path fill="#1E3B59" d="M631 565v2l1.813-1.062C635 565 635 565 638 566a675 675 0 0 1-5.375 3.563l-3.023 2.003L627 573l-2-1c.602-2.02 1.273-4.021 2-6 2-1 2-1 4-1"/><path fill="#0C1F31" d="m237 262 2 1a1882 1882 0 0 1-4.687 6.188l-1.319 1.751A85 85 0 0 1 224 281c1.32-4.359 3.63-7.076 6.66-10.352 1.56-1.721 1.56-1.721 2.34-4.648h2z"/><path fill="#1C496D" d="M436 243h1q.039 2.875.063 5.75l.035 3.234c-.083 2.55-.352 4.595-1.098 7.016h-3v-2h2l-.937-2.75c-.79-2.416-1.492-4.778-2.063-7.25h3z"/><path fill="#214462" d="m392 556 12 1v2c-2.882.96-4.699 1.106-7.687 1.063l-2.45-.028L392 560z"/><path fill="#446789" d="m737 500 3 1c-2.295 2.442-4.739 4.354-7.5 6.25l-2.344 1.64L728 510l-3-1c2.295-2.442 4.739-4.354 7.5-6.25l2.344-1.64z"/><path fill="#122E45" d="M498 452h5c-.607 4.86-2.728 8.74-5 13-1.224-3.938-.483-6.161 1-10h-2z"/><path fill="#366289" d="M313 425c5.273.445 10.018 1.084 15 3v1q-2.594.04-5.187.063l-2.918.035c-2.75-.093-5.22-.477-7.895-1.098z"/><path fill="#0F304D" d="M248.438 421.25 250 422l-2.375 1.875c-2.593 2.024-2.593 2.024-4.625 4.125-2.625.125-2.625.125-5 0 1.282-3.846 2.786-4.42 6.21-6.281 1.79-.719 1.79-.719 4.227-.469"/><path fill="#0E2338" d="m644 432 2 2c-2.722 3.607-5.537 6.489-9.062 9.313l-2.598 2.113C632 447 632 447 629 447c3.413-3.6 6.755-6.96 10.875-9.75 3.35-1.95 3.35-1.95 4.125-5.25"/><path fill="#2C4F6A" d="m409 433 5 1c-2.853 2.932-5.65 5.643-9 8v-2h-2v-3l5-1z"/><path fill="#2F567A" d="M508 401h1v10l2 1-2 5h-2v8h-1c-.285-8.135.816-15.976 2-24"/><path fill="#294A64" d="M586 241c1.563 1.188 1.563 1.188 3 3 0 3.783-.988 4.986-3.562 7.813L583 254v-4l2-1v-4l-3-1 4-1z"/><path fill="#183249" d="M224 121h2c2.754 4.882 3.971 9.554 5 15l-3-1v-3h-2c-.8-3.287-1.097-4.71 0-8h-2z"/><path fill="#7195B1" d="M403.563 662.938 406 663v2q-2.34.762-4.687 1.5l-2.637.844c-2.67.655-4.94.774-7.676.656l2-1v-2l3.438-.437c3.321-.525 4.026-1.55 7.125-1.625"/><path fill="#4B7092" d="M717 473c6.028.476 10.767 3.197 16 6v2h-3v-2h-4v-2l-2.812-.312c-3.22-.695-4.214-1.165-6.188-3.688"/><path fill="#395E7F" d="m165 475 2 1-1 2-5 1-1 2q-2.495.524-5 1l-3 2c-2.187-.375-2.187-.375-4-1 12.122-6.17 12.122-6.17 17-8"/><path fill="#223A54" d="m606 466 2 1-14 13v-6c3-2 3-2 5.438-2.875 2.876-1.263 4.476-2.808 6.562-5.125"/><path fill="#3C688F" d="m654 323 3 1v4h-2v-3l-2-1zm-5 4 6 1-1 3-6 1z"/><path fill="#3C678E" d="M278 265h3v2l2 1-3 6-4-1c.875-5.75.875-5.75 2-8"/><path fill="#537C9E" d="m346 530 2 3h-3l1 2h3l-1 6h-3c-2-3-2-3-3-5z"/><path fill="#21476C" d="M294 509h3l1 11-2 1v-2l-2-1z"/><path fill="#3A678D" d="M554 364h6l1 2h-3v2l5-1c-1.125 1.5-1.125 1.5-3 3-3.187.188-3.187.188-6 0l-1-3 2-1z"/><path fill="#183249" d="M198 297h1v6h2v4l3 1-1 2h-2v3h-2z"/><path fill="#406281" d="m554 287 2 2a737 737 0 0 1-3.812 5.438l-2.145 3.058C548 300 548 300 545 301l2-7h3v-3h3z"/><path fill="#436C8E" d="M565 216c3.161 1.37 3.993 1.99 6 5-.375 3.188-.375 3.188-1 6h-5l1-2h2l-1-5h-4v-2h2z"/><path fill="#1E3B58" d="m660 108 2 1c-2.045 5.601-3.862 10.567-8 15 .743-4.084 1.83-8.02 3-12h2z"/><path fill="#66859B" d="M406 624c7.483 6.15 7.483 6.15 10 10a85 85 0 0 1-7-2l-1-3c-1.997-1.685-1.997-1.685-4-3h2z"/><path fill="#2A4B68" d="m183 519 4 1v3l6 1-1 4c-3.995-1.37-6.8-3.257-10-6h2z"/><path fill="#284862" d="m395 428 2 1c.424 2.495.75 4.924 1 7.438.287 5.266.287 5.266 3 9.562l-3 2c-2.286-6.553-2.606-13.104-3-20"/><path fill="#213E58" d="m531 399 1 2a133 133 0 0 1-4.437 7.625l-1.315 2.14A924 924 0 0 1 523 416l-1-2a342 342 0 0 1 3.074-5.18c1.197-2.353 1.24-4.223.926-6.82l2-1 2 1z"/><path fill="#274F71" d="m699 358 1 3c2.015.733 2.015.733 4 1l1 6h-2l-1-5-6 1c1.875-4.875 1.875-4.875 3-6"/><path fill="#406C91" d="M505 195h8l-1 5c-2.621 0-4.51-.313-7-1z"/><path fill="#7696B0" d="M354 649h2l1.25 3.375c1.391 3.29 2.425 4.23 5.75 5.625 1.25 2.125 1.25 2.125 2 4-3.74-.554-5.303-1.994-7.75-4.812l-1.86-2.083C354 653 354 653 354 649"/><path fill="#7C9CB6" d="m505 602 1 4-2 3v3l-2-1v-2h-2v2l-2-1z"/><path fill="#6B94B6" d="m332 555 2 1v3l1-3h3l-3 10-2-1c-.414-2.285-.414-2.285-.625-5.062l-.227-2.786z"/><path fill="#3F6892" d="M592 466c2 3 2 3 2 5h-2l-1 10h-2c-1.36-6.428-1.36-6.428.375-9.187L591 470c.705-2.147.705-2.147 1-4"/><path fill="#154064" d="M748 463c3 1 3 1 4 3 .04 2 .043 4 0 6h-3v-5h-3z"/><path fill="#446D95" d="M632 422h2c3 5.625 3 5.625 3 9l-5 1v-4h2l-2-3z"/><path fill="#375C7B" d="M306 366c1.938.087 3.876.195 5.813.313l3.269.175c3.093.543 4.048 1.065 5.918 3.512q-2.907-.212-5.812-.437l-3.27-.247C309 369 309 369 306 368z"/><path fill="#19354F" d="M508 346h5c-3.805 4.56-7.75 8.85-12 13l-2-1 2.438-2.312c2.73-2.482 2.73-2.482 3.562-5.688 2.063-1.187 2.063-1.187 4-2z"/><path fill="#406A8F" d="M575 230c2.063.75 2.063.75 4 2l1 3-2 1-1 2-4-2v-5z"/><path fill="#1F3B58" d="m607 583 2 1c-5.162 3.754-8.56 5.67-15 5v3h-3l2-5 3.063.25c3.707-.235 4.77-.491 7.75-2.312 1.051-.64 2.103-1.28 3.187-1.938"/><path fill="#335474" d="m317 507 3 1-1 1q.43 3.51 1 7l-3 1-2-9z"/><path fill="#477091" d="M507 478c2.438.75 2.438.75 5 2 .813 2.125.813 2.125 1 4l-1.875.875c-2.258 1.062-2.258 1.062-4.125 3.125z"/><path fill="#1F4467" d="M472 444h4l2 5h3v3l2 1-3 2v-2h-2c-3-5.75-3-5.75-3-8z"/><path fill="#112C43" d="m188 447 3.25.563c3.154.367 4.848.482 7.75-.563-2.291 2.63-4.248 3.656-7.562 4.688l-2.38.761C187 453 187 453 185 453l1-3 4 1z"/><path fill="#163651" d="M649 427h12l-1 5q-2.19-.676-4.375-1.375l-2.46-.773C651 429 651 429 649 427"/><path fill="#3B6286" d="M292 406h3c1.605 1.75 1.605 1.75 3.188 4l1.605 2.25L301 414h-3v-2h-4c-1.75-1.5-1.75-1.5-3-3z"/><path fill="#325675" d="M579 208h2v7h2l2 7c-3.904-3.47-6.366-7.552-9-12h3z"/><path fill="#537CA3" d="M655 76c0 3 0 3-1.562 5.5L652 84l1 3h-4v-2l-2-1z"/><path fill="#7497B0" d="M465 651h6l1 2-1 2 2 1-3 3-3-1 2-1-2-3h-2z"/><path fill="#7494B0" d="M394 615c3.875.55 5.596 2.276 8.25 5.063l2.14 2.222L406 624l-1 2a105 105 0 0 1-5-4v-2l-1.875-.937L394 617z"/><path fill="#6B8EA9" d="M546 572h7l-1 9-2-3-3-1z"/><path fill="#19344E" d="m697 527 2 1q-3.43 2.294-6.875 4.563l-1.973 1.326C688.474 534.988 686.74 536 685 537l-2-1c1.933-2.025 3.632-3.421 6-5v-1l2.875-.937c2.986-.937 2.986-.937 5.125-2.063"/><path fill="#305C7F" d="m515 492 5 1c.773 2.982 1.412 5.976 2 9-3.214-1.108-3.991-1.985-5.75-5-1.25-3-1.25-3-1.25-5"/><path fill="#315777" d="m436 405 2 1-1 8h-3l-1 4h-3v-2h2l1-4 3 1z"/><path fill="#3D6790" d="M290 355h5l-2 5c-3.375.125-3.375.125-7 0l-2-2h5z"/><path fill="#051B31" d="M249 246h2c-1.45 4.356-3.677 7.318-6.625 10.813l-2.477 2.957L240 262c0-3.54.66-4.183 2.813-6.875 1.84-2.347 3.428-4.539 4.937-7.125z"/><path fill="#142C43" d="m632 166 1 2a113 113 0 0 1-3.437 7.125l-1.026 1.996A775 775 0 0 1 626 182l-2-1c2.247-5.377 4.597-10.26 8-15"/><path fill="#345674" d="M203 46c2.907 1.066 3.844 1.703 5.313 4.5C209 53 209 53 208 55a100 100 0 0 0 0 5c-1.858-3.135-2.201-5.375-2-9h-2z"/><path fill="#7597B2" d="m479 629 1 2 3 1c-4.308 3.938-4.308 3.938-7.812 4.25L473 636z"/><path fill="#1D3D59" d="M754 463c2.144 2.61 3.59 4.612 4 8-.437 2.75-.437 2.75-1 5l-1-2h-2l1-6h-2z"/><path fill="#2F516D" d="m504 439 5 1c-.75 2.938-.75 2.938-2 6-2.125.875-2.125.875-4 1z"/><path fill="#254867" d="M449 421c5.653 1.37 8.511 5.677 12 10l-2 1-2-1v-2l-3-1v-3h-3z"/><path fill="#31587B" d="M280 398c2.211.428 3.981.99 6 2l1-2 2 3-1 2c-3.062.625-3.062.625-6 1l1-4-4-1zm-3 2 2 1Z"/><path fill="#25445F" d="M219 350c4.318.508 8.033 1.197 12 3l-1 3c-4.85-1.12-7.778-2.133-11-6"/><path fill="#305478" d="m329 207 1 3-3 3 3 1c-5.625 3-5.625 3-9 3z"/><path fill="#3A5872" d="M478 678c5.774.481 9.959 2.185 15 5-3.641 1.333-5.669.658-9.187-.812l-2.668-1.083C479 680 479 680 478 678"/><path fill="#183147" d="M314 558c2.288 2.288 2.755 3.808 3.688 6.875l.824 2.617c.505 2.595.344 4.039-.512 6.508-3.818-4.814-3.7-10.106-4-16"/><path fill="#33516C" d="M250 562h2v2l1.625.25c3.21 1.014 5.638 2.822 8.375 4.75-3 1-3 1-5.262.004l-2.425-1.442-2.45-1.433L250 565z"/><path fill="#254663" d="m724 508 4 2c-2.366 2.615-4.86 4.39-8 6l-2-1 1-4 5 1z"/><path fill="#496D8B" d="M526 404c1 3 1 3 .004 5.262l-1.442 2.425-1.433 2.45L522 416c-1.055-1.86-1.055-1.86-2-4 .875-2.25.875-2.25 2-4h2z"/><path fill="#40688B" d="M282.5 395.688c2.797 1.468 3.434 2.405 4.5 5.312l-1.625-1.062c-3.108-1.227-5.17-.667-8.375.062.375-1.937.375-1.937 1-4 2-1 2-1 4.5-.312"/><path fill="#416481" d="M654 344v1c-1.936.222-3.874.427-5.812.625l-3.27.352C642 346 642 346 639 344c5.054-3.032 9.637-1.354 15 0"/><path fill="#4F789F" d="m539 330 1 2c-.937 2.625-.937 2.625-2 5h-2l-1 6h-2c-.715-1.703-.715-1.703-1-4 1.434-2.36 1.434-2.36 3.438-4.75l1.996-2.422z"/><path fill="#28455F" d="M693 278h2c-.087 1.626-.195 3.25-.312 4.875l-.176 2.742C694 288 694 288 691 290q.21-2.72.438-5.437c.08-1.01.162-2.02.246-3.06C692 279 692 279 693 278"/><path fill="#3E6E98" d="M559 209h2c1.625 2.5 1.625 2.5 3 5-5.75 3-5.75 3-8 3 1.875-5.75 1.875-5.75 3-8"/><path fill="#2C567C" d="M538 526c3.491 1.164 3.852 1.89 5.688 4.938l1.324 2.152C546 535 546 535 546 537c-4.053-1.35-4.87-3.38-7-7-.75-2.375-.75-2.375-1-4"/><path fill="#11385A" d="M347 525c1 3 1 3 .074 5.043l-1.387 2.144-1.363 2.168L343 536h-2c1.477-7.508 1.477-7.508 4.125-10z"/><path fill="#3E638B" d="M607 486v3a174 174 0 0 1-5 4 115 115 0 0 0-4 5l-2-1a717 717 0 0 1 3.25-3.812l1.828-2.145c1.846-1.962 3.721-3.5 5.922-5.043"/><path fill="#092135" d="M166 464a1834 1834 0 0 1-6.375 3l-3.586 1.688C153 470 153 470 151 470v-2c10.5-5.5 10.5-5.5 15-4"/><path fill="#2E516D" d="m365 442 6 5-2 1v2h-4z"/><path fill="#1A3750" d="M737 429c3.165 1.583 3.711 4.397 5.125 7.563l1.633 3.628L745 443l-2 1q-1.228-2.339-2.437-4.687l-1.372-2.637c-1.15-2.586-1.754-4.89-2.191-7.676m1 10 2 1Z"/><path fill="#4E7496" d="M593 358h9c-1 2-1 2-3.687 3.125-3.27.864-5.95 1.035-9.313.875l1-2h3z"/><path fill="#23435D" d="M420.125 703.25 423 704l1 2 3 2c-4.571-.549-8.674-1.417-13-3 3-2 3-2 6.125-1.75"/><path fill="#7494AE" d="m420 657 3 1c-3.86 2.573-7.464 4.01-12 5-2.215-.453-2.215-.453-4-1l2.59-.84 3.348-1.097 3.34-1.09c2.603-.712 2.603-.712 3.722-1.973"/><path fill="#6484A2" d="m372 660 1 3-5-1-1 4-4-4c3.435-2.29 4.985-2.178 9-2"/><path fill="#748E9F" d="M541 624c.987 2.666 1.028 3.901.25 6.688C540 633 540 633 537 634v-7l3-1z"/><path fill="#122943" d="m577 604-9 6-2-1 3-1v-4c5.75-1.125 5.75-1.125 8 0"/><path fill="#2F5076" d="m611 580-2 1v2l-8 4c1.616-6.465 3.412-7.44 10-7"/><path fill="#204A6E" d="m296 548 4 1c.625 1.813.625 1.813 1 4l-2 3-2-1a109 109 0 0 1-1-7m1 8 2 1-2 1z"/><path fill="#406487" d="M713 517v2c-6.5 4-6.5 4-11 4v-2c6.5-4 6.5-4 11-4"/><path fill="#305A81" d="M532 515h2l1 7h2l1 4h-2v-2h-2c-1.562-2.812-1.562-2.812-3-6z"/><path fill="#3B6890" d="M572 362h3c-.187 1.875-.187 1.875-1 4-3.378 1.877-6.176 2.218-10 2 1.275-2.55 2.403-2.93 5-4h3z"/><path fill="#31516D" d="M369 357c6 6 6 6 6.063 8.563L375 368l-3-2v-2h-2z"/><path fill="#294865" d="M377 348h5l1 11a61 61 0 0 1-4.125-7.187l-1.07-2.168z"/><path fill="#4C78A0" d="m545 322 1 2-1 3 3 1a91 91 0 0 1-4 4h-2l2-5-3 1c1.152-2.468 2.048-4.048 4-6"/><path fill="#3F6D95" d="m601 257 6 3-1 4c-1.937-.687-1.937-.687-4-2-.75-2.625-.75-2.625-1-5"/><path fill="#2A4B6A" d="m300 221 1 2 2 1c-1.25 3.653-1.671 4.78-5 7l-1-3h3v-3l-3-1z"/><path fill="#3F6483" d="M307 213h2c-.507 4.398-3.083 6.87-6 10h-2c0-3 0-3 2.438-5.562.845-.805 1.69-1.61 2.562-2.438z"/><path fill="#173045" d="m650 131 1 2c-1.145 2.785-1.145 2.785-2.812 6.063l-1.645 3.285C645 145 645 145 643 146c.578-4.062 1.891-6.848 4.063-10.312.547-.884 1.095-1.767 1.66-2.676z"/><path fill="#1C3750" d="M706 118c1.737 3.474 2.3 5.076 2.625 8.75l.227 2.422L709 131l-3 1-1-5h2z"/><path fill="#295477" d="m623 535 4 1v3h-2v3l-5-1z"/><path fill="#2E4B65" d="M133 492h6l1 3c2.015.733 2.015.733 4 1l-1 2c-3.59-1.333-6.796-2.894-10-5z"/><path fill="#487093" d="M551 432c-3 2-3 2-7 2l1 3c-3.875-1.75-3.875-1.75-5-4 7.429-2.429 7.429-2.429 11-1"/><path fill="#133455" d="m257 414 1 3-5 5-3-1 1-3c3.063-1.187 3.063-1.187 6-2z"/><path fill="#1F3E5B" d="m492 364 2 1a141 141 0 0 1-5 5h-2v-2l-1.937-.375L483 367l-1-2c2.375-.125 2.375-.125 5 0l2 2z"/><path fill="#466C8F" d="M683 332c-3.094 3.094-6.552 3.937-10.875 4.125L670 336c1-2 1-2 3.125-3.125 3.399-1.034 6.341-1.014 9.875-.875"/><path fill="#4D769C" d="M610 265c3.703-.337 5.395-.477 8.375 1.875C620 269 620 269 620 271h-3v-2h-2l-1-2-3-1v2l-2-1z"/><path fill="#3B678C" d="M470 249h4c.625 1.875.625 1.875 1 4l-2 2c-2.125-.375-2.125-.375-4-1z"/><path fill="#2A5578" d="M339 211c2.125.375 2.125.375 4 1v6h-2v-2h-4c0-3 0-3 2-5"/><path fill="#2C4763" d="m279 582 8 1 2 5c-3.59-1.333-6.796-2.894-10-5z"/><path fill="#345574" d="M719 513c-.75 2.438-.75 2.438-2 5-2.125.813-2.125.813-4 1v-5c3-1 3-1 6-1"/><path fill="#3B5D7C" d="M280 464h4c5 5.227 5 5.227 5 8-4.274-1.583-6.265-4.506-9-8"/><path fill="#386388" d="M280 424h5l-1 3-3 1v4h-3c.523-2.763 1.109-5.326 2-8"/><path fill="#527A9D" d="M607 395c-1.262 3.786-2.653 4.041-6 6l-2 3-2-1c1.093-1.342 2.2-2.673 3.313-4l1.863-2.25C604 395 604 395 607 395"/><path fill="#1F3950" d="M713 381c6 7.714 6 7.714 6 11h-2v-3l-4-1z"/><path fill="#365774" d="M345 379c4.63 1.462 4.63 1.462 6.375 4 .625 2 .625 2-.375 4l2 1h-3c-3.875-6.75-3.875-6.75-5-9"/><path fill="#1E3953" d="M689 341c2.313-.312 2.313-.312 5 0 1.819 2.383 3 3.958 3 7h-2v-2l-4-2v-2z"/><path fill="#244865" d="M211 333v2l4 2c-2 1-2 1-4.383.223l-2.742-1.16-2.758-1.153L203 334v-1c3.287-.8 4.71-1.097 8 0"/><path fill="#446886" d="M681 326c1.813.188 1.813.188 4 1 1.75 2.563 1.75 2.563 3 5-2.375-.187-2.375-.187-5-1-1.312-2.562-1.312-2.562-2-5"/><path fill="#081E30" d="M221 284c0 3.562-.747 4.365-2.875 7.125l-1.617 2.133C215 295 215 295 213 296c1.125-2.972 2.223-5.334 4-8h2z"/><path fill="#406382" d="m571 222 3 2-1 5-4-2c.875-3.875.875-3.875 2-5"/><path fill="#233D55" d="M486 694h2l1 3-7 5-2-1 1-3h4z"/><path fill="#6C8DA2" d="M503 614h3v5l2 1c-3.29 1.097-4.713.8-8 0l1-2h4v-2l-3-1z"/><path fill="#1D4A6E" d="M274 573h3l.875 1.938c.953 2.214.953 2.214 3.125 3.062l-1 3-7-4z"/><path fill="#3C5C81" d="m593 472 3 3-3 6h-2c-.25-5.625-.25-5.625 2-9"/><path fill="#123553" d="M138.625 466.875 141 467l-2 2h-3l-.437 1.813c-.45 1.749-.992 3.474-1.563 5.187h-2c2.313-8.92 2.313-8.92 6.625-9.125"/><path fill="#294962" d="M371 448c4.875 4.625 4.875 4.625 6 8h-2l-1-1-3 1z"/><path fill="#335D80" d="m449 422 1 7-1-2h-2v-2h-2v3h-2c.313-1.875.313-1.875 1-4 3-2 3-2 5-2"/><path fill="#203B53" d="M680 299h4l1 9c-4.429-5.143-4.429-5.143-5-9"/><path fill="#2B5071" d="M327 271v2h-3l1 4-5-2 1-3c2-1 2-1 6-1"/><path fill="#33506B" d="m592 230 6 2-1 4-4-1z"/><path fill="#1C476B" d="m216 81 1 2 3 1h-2l1 1.75c1 2.25 1 2.25 1 6.25h-3z"/><path fill="#325981" d="M422 680c1.063 1.875 1.063 1.875 2 4l-1 2h-5c1.75-4.875 1.75-4.875 4-6"/><path fill="#86A4B7" d="M542 614h1c-.087 1.605-.196 3.21-.312 4.813l-.176 2.707c-.575 2.786-1.333 3.721-3.512 5.48v-5h2z"/><path fill="#113753" d="m338 540 1 2c-1.215 2.602-1.215 2.602-2.937 5.625-.85 1.504-.85 1.504-1.715 3.04L333 553c-1-3-1-3 .25-5.937 1.447-2.534 2.921-4.799 4.75-7.063"/><path fill="#345F86" d="m489 484 4 1v6l-2 1-2-1v-2h2v-2h-2z"/><path fill="#356186" d="M648 474h1v8h-2v-2l-3 1a56.5 56.5 0 0 1 4-7"/><path fill="#164369" d="m745 453 4 4-1 3h-3l-2-5z"/><path fill="#143049" d="M686 444h5v2l2.938.875C697 448 697 448 698 450a320 320 0 0 1-4.312-1.312l-2.426-.739c-2.362-.99-3.6-2.03-5.262-3.949"/><path fill="#183247" d="M385 440c2.108 4.216 2.177 6.398 2 11l-4-2z"/><path fill="#2C5170" d="m633 366-1 2-3-1v3h-3l-1-3c3.067-1.862 4.597-2.215 8-1"/><path fill="#375A77" d="M359 343c3.536 3.173 5.586 5.167 6 10-2.335-2.257-4.187-4.28-6-7z"/><path fill="#204F7B" d="m688 344 4 2v2h-8z"/><path fill="#1C3A56" d="M197 341c3.188-.312 3.188-.312 6 0-2 2-2 2-5 4a101 101 0 0 0-3 3l-1-2c1.063-2.625 1.063-2.625 3-5"/><path fill="#2E5A7F" d="m507 324 2 1-1 4 5 1v1h-7z"/><path fill="#567A9E" d="M565 295c.813 1.688.813 1.688 1 4-2.46 2.87-4.855 4.903-8 7 1.486-4.593 3.85-7.436 7-11"/><path fill="#446487" d="M574 260c.688 1.75.688 1.75 1 4-1.312 2.25-1.312 2.25-3 4h-2l-1 2c.503-4.401 2.088-6.712 5-10"/><path fill="#294661" d="M703 230h1l-1 11h-2q.21-2.47.438-4.937c.08-.917.162-1.834.246-2.778C702 231 702 231 703 230"/><path fill="#385877" d="M612 198h3c-1.75 5.75-1.75 5.75-4 8-.625-2.312-.625-2.312-1-5z"/><path fill="#395C7B" d="M561 188h4l3 7h-3z"/><path fill="#365E84" d="M613.188 186.938 615 188l-1 3h-4l-2-4c3-1 3-1 5.188-.062"/><path fill="#375977" d="M621 177h5l-3 8c-1.765-3.088-2-4.233-2-8"/><path fill="#143E5F" d="m649 169 2 1-1 1v3.375c0 3.625 0 3.625-1 6.625l-3-1c.114-1.46.242-2.917.375-4.375.07-.812.14-1.624.21-2.46C647 171 647 171 649 169"/><path fill="#3F6382" d="m629 167 2 1-4 7-2-1 1-6z"/><path fill="#3E6488" d="M231 75c3.243.56 4.93 1.413 7 4v2h-5v-4h-2z"/><path fill="#4F7FA7" d="M659 72c2.625.375 2.625.375 5 1-2 3-2 3-4.625 3.688L657 77c0-3 0-3 2-5"/><path fill="#183652" d="M201 46h2c.2 3.716.152 4.772-2 8h-2l-1 3c.551-3.95 1.39-7.35 3-11"/><path fill="#395267" d="M437 650v3c-5.75 3-5.75 3-8 3l-1-4 2.813.125c3.345.146 3.345.146 6.187-2.125"/><path fill="#1E384E" d="M303 521c1.903 2.855 2.462 4.42 3.125 7.688l.508 2.449L307 533l-3-1z"/><path fill="#76A1C5" d="M530 521c1.938.75 1.938.75 4 2 .75 2.125.75 2.125 1 4h-2v-2l-4-1z"/><path fill="#31567E" d="M160 498c1 3 1 3 1 6l-3 1-4-5 2.438-.437c2.483-.304 2.483-.304 3.562-1.563"/><path fill="#4E799A" d="M376 487c.813 1.625.813 1.625 1 4-1.468 2.246-3.159 4.024-5 6l-2-1 3-6h2z"/><path fill="#42658D" d="M509 434c1 3 1 3 0 6h-4l1-5z"/><path fill="#203B5A" d="m516 425 1 2c-.996 2.164-.996 2.164-2.437 4.625l-1.434 2.477L512 436l-2-4 2-2a524 524 0 0 0 4-5"/><path fill="#143652" d="m639 420 7 1v2h3l-1 4-2.25-1.812A247 247 0 0 0 639 420"/><path fill="#2E5679" d="m291 403 3 3c-2.947 1.8-5.888 3.502-9 5l2-5h3z"/><path fill="#263F55" d="M641 345h10c-2.313 2.313-3.479 2.496-6.625 3.125l-2.477.508L640 349z"/><path fill="#3F5E79" d="M345 324c2.5 2.25 2.5 2.25 5 5v4c-2.5-2.25-2.5-2.25-5-5z"/><path fill="#496C8D" d="m301 267 2 1v2l1.938.688C307 272 307 272 307.75 274.625L308 277l-7-7z"/><path fill="#507CA2" d="M595 255c2 3 2 3 2 5h-3c-2.688 2.438-2.688 2.438-5 5 1.37-3.995 3.257-6.8 6-10"/><path fill="#346693" d="M324 163c.625 2.063.625 2.063 1 4l-8-1 1-3c2.575-.997 3.49-1.255 6 0"/><path fill="#4D7AA1" d="m633 97 2 1-3 6h-5z"/><path fill="#253F56" d="M688 48c2.421 2.421 2.528 3.801 3.125 7.125l.508 2.758L692 60h-3z"/><path fill="#255985" d="m489 684 5 2-5 6c-1.097-3.29-.8-4.713 0-8"/><path fill="#5B82A0" d="m393 658 4 2-1 2 2 1-2 2h-3z"/><path fill="#173046" d="m584 597 3 1q-1.932 1.257-3.875 2.5l-2.18 1.406C579 603 579 603 577 603l1-4 2.438-.437c2.483-.304 2.483-.304 3.562-1.563"/><path fill="#274762" d="m589 595-8 5v-3c4.281-3.24 4.281-3.24 8-2"/><path fill="#24527B" d="M640 554c3 3.75 3 3.75 3 6h-5v-5z"/><path fill="#2A4D6C" d="M412 557c-1 1.5-1 1.5-3 3-2.718.273-5.257.135-8 0 6.667-4.444 6.667-4.444 11-3"/><path fill="#77A2C5" d="m534 533 1 3c-1.437 2.688-1.437 2.688-3 5l-3-1c3.875-5.875 3.875-5.875 5-7"/><path fill="#395B76" d="m570 512 3 2c-1.75 5.75-1.75 5.75-4 8-.125-6.625-.125-6.625 1-10"/><path fill="#2C5983" d="M153 482c3 2 3 2 3.688 4.125L157 488h-4zm3 0 3 1Z"/><path fill="#204464" d="m461 432 4 1v2h2l2 5c-2 0-2 0-3.508-1.496l-1.617-1.942-1.633-1.933C461 433 461 433 461 432"/><path fill="#3B6489" d="M381 433h2c.188 2.875.188 2.875 0 6l-3 2-1-5h2z"/><path fill="#4A7193" d="m530 393 2 1c.2 3.716.152 4.772-2 8l-3-1 2-3a75 75 0 0 0 1-5"/><path fill="#24415C" d="m609 375 2 2c-.242 2.602-.242 2.602-.875 5.625l-.617 3.04L609 388h-1a888 888 0 0 1-.062-5.375l-.036-3.023C608 377 608 377 609 375"/><path fill="#1C4667" d="M250 364h5v2h-2l-1 3-3-1z"/><path fill="#3D5E7B" d="M494 359h2c-1.012 3.403-1.648 4.757-4.625 6.813L489 367v-3h2l.938-1.937C493 360 493 360 494 359"/><path fill="#3F6585" d="M515 338h2c-1.125 2.972-2.223 5.334-4 8h-3c0-2 0-2 1.375-3.437L513 341z"/><path fill="#2E5A7F" d="m474 324-1.437 1.375c-1.653 1.558-1.653 1.558-2.563 3.625h-2l-1-5c3.133-1.044 3.99-.934 7 0"/><path fill="#3A5D7E" d="m341 318 4 4-1 2h-5v-3h2z"/><path fill="#1A446A" d="m434 307 3 1-1 5-5-1 4-1v-2l-3-1z"/><path fill="#4D769F" d="m556 307 2 1a76 76 0 0 0 5-1l1 2-1.937.375L560 310l-1 2h-2v-2h-2z"/><path fill="#48749B" d="M593 305c1.46 2.647 2 3.894 2 7h-3l-2-4z"/><path fill="#264058" d="m546 300 2 1-5 7c-1.333-2.667-.671-4.167 0-7z"/><path fill="#4B759A" d="M640 292h6l1 4h-6z"/><path fill="#3F6587" d="m273 267 1 3c-2.25 2.563-2.25 2.563-5 5l-4-1z"/><path fill="#21415D" d="M709 193h1c.25 7.625.25 7.625-2 11-1.23-6.4-1.23-6.4-.062-9.437z"/><path fill="#375A77" d="M336 175c0 3 0 3-2 5.188L332 182l-2-2c2.625-3.875 2.625-3.875 6-5"/><path fill="#37668D" d="m329 174 3 2-.562 1.813c-.659 2.351-.659 2.351.562 5.187h-4z"/><path fill="#3D5C78" d="m276 117 8 6-3 1v-2l-1.875-.375C277 121 277 121 275 119z"/><path fill="#4D79A0" d="m626 104 1 4h-2l-1 2a78 78 0 0 1-5 2l2.938-3.437 1.652-1.934A50 50 0 0 1 626 104"/><path fill="#1B4665" d="M679 61h4v2l-2 1c-.652 2.025-.652 2.025-1 4h-2c-.043-2-.04-4 0-6z"/><path fill="#8A9EAD" d="M538 631h1c.178 4.548-.002 7.88-2 12h-2z"/><path fill="#6A8CA5" d="m528 597 3 1c-4.75 4.875-4.75 4.875-7 6 .564-3.27 1.5-4.826 4-7"/><path fill="#2A445E" d="M243 556a78 78 0 0 1 2 5c-3.375-1.186-5.647-2.276-8-5 3.75-1.125 3.75-1.125 6 0"/><path fill="#1D3A55" d="m655 549 6 3-6 4-2-1z"/><path fill="#315C7F" d="m525 507 4 1 1 5c-1.937-.75-1.937-.75-4-2-.75-2.125-.75-2.125-1-4"/><path fill="#2E577A" d="M606 394h3v2h3l2 5h-3c-1.387-1.531-1.387-1.531-2.687-3.5l-1.325-1.969z"/><path fill="#2F5B80" d="M262.563 310.938 265 311v2c-2.652 1.075-5.284 2.095-8 3 2.412-4.986 2.412-4.986 5.563-5.062"/><path fill="#335B7C" d="M577.188 203.938 579 205l-1 2h-2l-1 2-3-5c3-1 3-1 5.188-.062"/><path fill="#3C5A7A" d="M324 163h2v2l1.938.875C330 167 330 167 331 169c-4.75-.75-4.75-.75-7-3z"/><path fill="#325E86" d="M582 148h2l-2 4h-2zm-4 4h2l2 4h-3z"/><path fill="#213C56" d="M699 92h2l1 10-1-3h-2c-1.044-3.133-.934-3.99 0-7"/><path fill="#6E99BA" d="m345 613 2 1c.594 2.649.742 5.292 1 8h-2z"/><path fill="#1E3449" d="m560 608 6 2-1 2c-2.562.625-2.562.625-5 1z"/><path fill="#8BA5B6" d="M549 580h1c.125 7.75.125 7.75-1 10h-2v-5h2z"/><path fill="#2A425A" d="M653 556c-1.125 1.5-1.125 1.5-3 3-3.187.188-3.187.188-6 0 2.61-3.48 4.831-3.278 9-3"/><path fill="#2A4765" d="M215 540c2.714.933 3.78 1.627 5.25 4.125L221 546c-3.375-1.186-5.647-2.276-8-5z"/><path fill="#638CAC" d="m513 492 5 5-1 2-4-1z"/><path fill="#335C84" d="m517 481 5 1-1 3h-4z"/><path fill="#2C5E88" d="m489 471 3 1v5l-4-1z"/><path fill="#3C6D96" d="m528 441 1 2 2 1-2 3-3-1v-4z"/><path fill="#204466" d="m224 396 4 1c-.564 3.27-1.5 4.826-4 7 .875-4.75.875-4.75 2-7z"/><path fill="#1E3953" d="m483 375-4 2v2l-3 1 1-5c3.75-1.125 3.75-1.125 6 0"/><path fill="#476F90" d="M674 319c1.938.75 1.938.75 4 2 .75 2.125.75 2.125 1 4l-5-1z"/><path fill="#3C688D" d="M280 288c2.96 2.755 5.037 5.466 7 9h-3c-3.178-3.269-4-4.322-4-9"/><path fill="#346693" d="M302 274h4l1 5h-3z"/><path fill="#436E90" d="M473 183h5v5l-1-3-3 1zm0 3 1 2-3-1z"/><path fill="#254B6F" d="m669 176 3 1-6 7-1-4c1.938-2.25 1.938-2.25 4-4"/><path fill="#294F73" d="M689 81h4v2h-3l-1 3h-2v-2l-2-1h4z"/><path fill="#3C688E" d="M207 52c2 1 2 1 3.125 3.375C211 58 211 58 211 61l-3-1z"/><path fill="#1D354C" d="m495 686 3 1c-1.293 2.884-2.66 4.872-5 7l-2-1 1.438-1.25c1.725-1.932 2.128-3.232 2.562-5.75"/><path fill="#6A94AC" d="m437 649-1 3-5 1-1-2c2.647-1.46 3.894-2 7-2"/><path fill="#233B4F" d="M297 501h1c2.429 6.286 2.429 6.286 1 10l-2-1z"/><path fill="#3E6A8F" d="M720 496c1.858 3.135 2.201 5.375 2 9l-4-1z"/><path fill="#355065" d="M755 490h3l-1 4-4 1v-3h2z"/><path fill="#355372" d="M292 476c2.02.602 4.021 1.273 6 2l1 2-2 2z"/><path fill="#456888" d="M370 420h2c3.125 6.625 3.125 6.625 2 10-2.191-3.334-3.435-6.042-4-10"/><path fill="#284E72" d="m674 396 3 1a159 159 0 0 1-5 6h-2a56.5 56.5 0 0 1 4-7"/><path fill="#2B4B65" d="m624 367 2 1-1 3h-6c1.634-1.708 2.87-2.935 5-4"/><path fill="#3B668C" d="M527 355h6c-2 3-2 3-4.625 3.688L526 359z"/><path fill="#1D3F5D" d="M251 350h8v2l2 1c-6.625-.75-6.625-.75-10-3"/><path fill="#385A78" d="m505 337 3 1-1 6h-2z"/><path fill="#396A95" d="M328 310h2v3h2l1 4-4-1v-4l-2-1z"/><path fill="#3A6488" d="m262 166 2 3-2 3h-3v-4h3z"/><path fill="#0C2B48" d="m222 112 3 2c.188 3.125.188 3.125 0 6-1.5-1.187-1.5-1.187-3-3-.187-2.687-.187-2.687 0-5"/><path fill="#395675" d="M215 58c2.5 1.313 2.5 1.313 5 3v3h-3v-4h-2z"/></svg>